<?xml version="1.0" encoding="UTF-8" standalone="no"?>
<!-- Created with Inkscape (http://www.inkscape.org/) -->

<svg
   width="210mm"
   height="297mm"
   viewBox="0 0 210 297"
   version="1.1"
   id="svg1"
   inkscape:version="1.4 (86a8ad7, 2024-10-11)"
   sodipodi:docname="alterna_icon_v2.svg"
   xmlns:inkscape="http://www.inkscape.org/namespaces/inkscape"
   xmlns:sodipodi="http://sodipodi.sourceforge.net/DTD/sodipodi-0.dtd"
   xmlns="http://www.w3.org/2000/svg"
   xmlns:svg="http://www.w3.org/2000/svg">
  <sodipodi:namedview
     id="namedview1"
     pagecolor="#ffffff"
     bordercolor="#000000"
     borderopacity="0.25"
     inkscape:showpageshadow="2"
     inkscape:pageopacity="0.0"
     inkscape:pagecheckerboard="0"
     inkscape:deskcolor="#d1d1d1"
     inkscape:document-units="mm"
     inkscape:zoom="0.51981271"
     inkscape:cx="362.63061"
     inkscape:cy="673.31943"
     inkscape:window-width="2543"
     inkscape:window-height="1328"
     inkscape:window-x="4472"
     inkscape:window-y="16"
     inkscape:window-maximized="0"
     inkscape:current-layer="layer1" />
  <defs
     id="defs1" />
  <g
     inkscape:label="Layer 1"
     inkscape:groupmode="layer"
     id="layer1">
    <path
       d="m 105.1589,21.593384 c 0,0.498153 0.11496,0.919669 0.28739,1.072952 0.15329,0.134117 0.2874,0.51731 0.2874,0.86219 0,0.344877 0.13412,0.728073 0.2874,0.862193 0.1916,0.172439 0.2874,0.613114 0.2874,1.436986 0,0.823874 0.0958,1.264549 0.28739,1.436987 0.24908,0.210759 0.2874,1.187911 0.2874,6.610142 0,5.422232 -0.0384,6.399384 -0.2874,6.610142 -0.19159,0.172437 -0.28739,0.613114 -0.28739,1.436987 0,0.823872 -0.0958,1.264549 -0.2874,1.436987 -0.17244,0.153279 -0.2874,0.574795 -0.2874,1.14959 0,0.574795 -0.11496,0.996311 -0.2874,1.149589 -0.15328,0.13412 -0.28739,0.517316 -0.28739,0.862193 0,0.344877 -0.13412,0.728073 -0.2874,0.862192 -0.15328,0.134119 -0.28739,0.517316 -0.28739,0.862193 0,0.344876 -0.13413,0.728074 -0.2874,0.862192 -0.15328,0.134119 -0.2874,0.517316 -0.2874,0.862192 0,0.344878 -0.13412,0.728074 -0.28739,0.862193 -0.15329,0.134118 -0.2874,0.383197 -0.2874,0.574794 0,0.191599 -0.13413,0.440677 -0.2874,0.574795 -0.15328,0.13412 -0.2874,0.517316 -0.2874,0.862193 0,0.344877 -0.13412,0.728073 -0.2874,0.862193 -0.15327,0.134118 -0.2874,0.383196 -0.2874,0.574794 0,0.191598 -0.13412,0.44068 -0.28739,0.574799 -0.15328,0.134119 -0.2874,0.383196 -0.2874,0.574795 0,0.191598 -0.13413,0.440676 -0.2874,0.574795 -0.15328,0.134118 -0.28739,0.383196 -0.28739,0.574794 0,0.191599 -0.13413,0.440677 -0.2874,0.574796 -0.15328,0.134119 -0.2874,0.383196 -0.2874,0.555635 0,0.191598 -0.24908,0.574794 -0.574797,0.881352 -0.306556,0.306557 -0.57479,0.689754 -0.57479,0.881353 0,0.172437 -0.134125,0.421496 -0.287399,0.555615 -0.153282,0.134118 -0.287399,0.383196 -0.287399,0.555635 0,0.191599 -0.249077,0.574788 -0.574799,0.881344 -0.306556,0.306557 -0.57479,0.689754 -0.57479,0.862193 0,0.172439 -0.249085,0.555634 -0.574797,0.862193 -0.306555,0.306556 -0.574793,0.689754 -0.574793,0.862191 0,0.172439 -0.249078,0.555635 -0.574794,0.862193 -0.306559,0.306557 -0.574798,0.689754 -0.574798,0.862192 0,0.172439 -0.249077,0.555635 -0.574793,0.862193 -0.30656,0.306557 -0.574793,0.689754 -0.574793,0.862192 0,0.153279 -0.517315,0.804712 -1.149591,1.436987 -0.632276,0.632275 -1.149591,1.264549 -1.149591,1.436987 0,0.172439 -0.517316,0.804713 -1.14959,1.436987 -0.632274,0.632275 -1.149589,1.26455 -1.149589,1.436988 0,0.153278 -0.651435,0.938832 -1.436988,1.724385 -0.785553,0.785553 -1.436987,1.551946 -1.436987,1.724384 0,0.153279 -1.034631,1.322029 -2.29918,2.586578 -1.264548,1.264548 -2.29918,2.433298 -2.29918,2.586576 0,0.153279 -1.03463,1.322028 -2.299179,2.586577 -1.264549,1.26455 -2.299179,2.433299 -2.299179,2.586578 0,0.153278 -1.551947,1.839343 -3.44877,3.736167 -1.896823,1.896823 -3.448769,3.582888 -3.448769,3.736166 0,0.153279 -1.16875,1.456147 -2.586578,2.873975 -1.417827,1.417827 -2.586577,2.720692 -2.586577,2.873972 0,0.15328 -1.417827,1.70523 -3.161372,3.44878 -1.743544,1.74354 -3.161371,3.29549 -3.161371,3.44876 0,0.17244 -0.651435,0.93884 -1.436988,1.72439 -0.785553,0.78555 -1.436987,1.55195 -1.436987,1.72439 0,0.17243 -0.651434,0.93882 -1.436987,1.72437 -0.785553,0.78556 -1.436987,1.57111 -1.436987,1.72439 0,0.17244 -0.517316,0.80471 -1.14959,1.43699 -0.632275,0.63227 -1.149591,1.26455 -1.149591,1.43699 0,0.17244 -0.383196,0.68975 -0.862192,1.14959 -0.478995,0.45984 -0.862192,0.97715 -0.862192,1.14959 0,0.17244 -0.383197,0.68976 -0.862193,1.14959 -0.478995,0.45984 -0.862192,0.97715 -0.862192,1.14959 0,0.17244 -0.249078,0.55564 -0.574795,0.86219 -0.306557,0.30656 -0.574794,0.68975 -0.574794,0.86219 0,0.17244 -0.249078,0.55564 -0.574795,0.86219 -0.306558,0.30657 -0.574796,0.68976 -0.574796,0.8622 0,0.17244 -0.249077,0.55563 -0.574795,0.86219 -0.306557,0.30656 -0.574794,0.68976 -0.574794,0.8622 0,0.17243 -0.249078,0.55563 -0.574795,0.86219 -0.306557,0.30655 -0.574795,0.68975 -0.574795,0.86219 0,0.17244 -0.249078,0.55563 -0.574795,0.86219 -0.306557,0.30656 -0.574795,0.68975 -0.574795,0.88135 0,0.17244 -0.134118,0.42152 -0.287397,0.55563 -0.153279,0.13413 -0.287398,0.3832 -0.287398,0.5748 0,0.1916 -0.134118,0.44067 -0.287397,0.5748 -0.153279,0.13412 -0.287398,0.38319 -0.287398,0.55563 0,0.1916 -0.249077,0.57479 -0.574794,0.88136 -0.325718,0.30655 -0.574795,0.68975 -0.574795,0.88134 0,0.17244 -0.134119,0.42152 -0.287398,0.55564 -0.153278,0.13412 -0.287398,0.3832 -0.287398,0.5748 0,0.19159 -0.134118,0.44067 -0.287397,0.57479 -0.153278,0.13412 -0.287397,0.3832 -0.287397,0.57479 0,0.1916 -0.134119,0.44068 -0.287397,0.5748 -0.153279,0.13412 -0.287398,0.3832 -0.287398,0.57479 0,0.19161 -0.134119,0.44068 -0.287398,0.5748 -0.153279,0.13412 -0.287397,0.38319 -0.287397,0.5748 0,0.19159 -0.134119,0.44067 -0.287398,0.57479 -0.153278,0.13412 -0.287397,0.38319 -0.287397,0.5748 0,0.1916 -0.134119,0.44067 -0.287397,0.5748 -0.153279,0.13411 -0.287398,0.38319 -0.287398,0.57479 0,0.19159 -0.134118,0.44067 -0.287397,0.57479 -0.153279,0.13412 -0.287398,0.3832 -0.287398,0.5748 0,0.19159 -0.134118,0.44067 -0.287397,0.57479 -0.153279,0.13412 -0.287398,0.51731 -0.287398,0.86219 0,0.34488 -0.134118,0.72808 -0.287397,0.86219 -0.153279,0.13412 -0.287397,0.3832 -0.287397,0.5748 0,0.1916 -0.13412,0.44067 -0.287398,0.57479 -0.153279,0.13413 -0.287397,0.51732 -0.287397,0.86219 0,0.34488 -0.134119,0.72808 -0.287398,0.8622 -0.153278,0.13412 -0.287397,0.38319 -0.287397,0.5748 0,0.19159 -0.134119,0.44067 -0.287398,0.57479 -0.153278,0.13412 -0.287398,0.51732 -0.287398,0.86219 0,0.34488 -0.134118,0.72808 -0.287396,0.86219 -0.153279,0.13412 -0.287398,0.51731 -0.287398,0.86219 0,0.34488 -0.134118,0.72808 -0.287397,0.8622 -0.15328,0.13412 -0.287398,0.51731 -0.287398,0.86219 0,0.34488 -0.134119,0.72807 -0.287398,0.86219 -0.172437,0.15328 -0.287397,0.5748 -0.287397,1.1496 0,0.57479 -0.114959,0.9963 -0.287397,1.14958 -0.153279,0.13412 -0.287397,0.51732 -0.287397,0.86219 0,0.34488 -0.134119,0.72808 -0.287398,0.86219 -0.172439,0.15329 -0.287398,0.5748 -0.287398,1.14959 0,0.5748 -0.114958,0.99632 -0.287397,1.1496 -0.191599,0.17244 -0.287398,0.61311 -0.287398,1.43699 0,0.82387 -0.0958,1.26454 -0.287396,1.43698 -0.1916,0.17244 -0.287399,0.61312 -0.287399,1.43699 0,0.82387 -0.0958,1.26454 -0.287397,1.43698 -0.191598,0.17244 -0.287397,0.61312 -0.287397,1.43699 0,0.82388 -0.0958,1.26456 -0.287398,1.43699 -0.229917,0.1916 -0.287397,0.72807 -0.287397,2.58658 0,1.8585 -0.05748,2.39497 -0.287398,2.58658 -0.440676,0.36403 -0.440676,18.0294 0,18.39343 0.229918,0.1916 0.287398,0.70891 0.287398,2.29918 0,1.59026 0.05748,2.10758 0.287397,2.29918 0.210758,0.17244 0.287398,0.63228 0.287398,1.72439 0,1.0921 0.07664,1.55194 0.287397,1.72438 0.191598,0.17244 0.287397,0.61312 0.287397,1.43698 0,0.82389 0.0958,1.26456 0.287399,1.437 0.172437,0.15327 0.287396,0.57479 0.287396,1.14959 0,0.5748 0.114959,0.99631 0.287398,1.14959 0.172439,0.15327 0.287397,0.57479 0.287397,1.14958 0,0.5748 0.114959,0.99632 0.287398,1.14959 0.153279,0.13413 0.287398,0.51732 0.287398,0.86219 0,0.34488 0.134118,0.72808 0.287397,0.8622 0.153278,0.13412 0.287397,0.51731 0.287397,0.86219 0,0.34488 0.134119,0.72807 0.287397,0.86219 0.153279,0.13412 0.287398,0.51732 0.287398,0.8622 0,0.34488 0.134118,0.72807 0.287398,0.86219 0.153279,0.13412 0.287397,0.51731 0.287397,0.86219 0,0.34487 0.134119,0.72808 0.287398,0.86219 0.153278,0.13412 0.287396,0.51731 0.287396,0.86219 0,0.34488 0.13412,0.72808 0.287398,0.8622 0.153279,0.13412 0.287398,0.38319 0.287398,0.5748 0,0.19159 0.134119,0.44066 0.287397,0.57479 0.153279,0.13412 0.287398,0.38319 0.287398,0.57479 0,0.1916 0.134118,0.44068 0.287397,0.5748 0.153278,0.13411 0.287398,0.51732 0.287398,0.8622 0,0.34487 0.134118,0.72806 0.287397,0.86218 0.153279,0.13412 0.287397,0.3832 0.287397,0.57479 0,0.19161 0.134119,0.44069 0.287398,0.5748 0.153279,0.13412 0.287397,0.3832 0.287397,0.5748 0,0.19159 0.134119,0.44067 0.287398,0.57479 0.153279,0.13412 0.287397,0.3832 0.287397,0.57479 0,0.19161 0.134119,0.44068 0.287398,0.5748 0.153278,0.13412 0.287397,0.38319 0.287397,0.55563 0,0.19161 0.249078,0.5748 0.574795,0.88136 0.306557,0.30655 0.574795,0.68976 0.574795,0.88135 0,0.17244 0.134119,0.42152 0.287398,0.55564 0.153278,0.13411 0.287397,0.3832 0.287397,0.55563 0,0.1916 0.268237,0.5748 0.574794,0.88135 0.325717,0.30656 0.574796,0.68975 0.574796,0.86219 0,0.17244 0.249077,0.55564 0.574795,0.86219 0.306557,0.30657 0.574794,0.68976 0.574794,0.8622 0,0.17244 0.268238,0.55563 0.574795,0.86219 0.325717,0.30656 0.574795,0.68976 0.574795,0.86219 0,0.17244 0.383197,0.68976 0.862192,1.1496 0.478996,0.45983 0.862193,0.97715 0.862193,1.14958 0,0.17244 0.383197,0.68976 0.862192,1.14959 0.478997,0.45984 0.862192,0.97715 0.862192,1.13043 0,0.40236 7.280736,7.6831 7.663932,7.6831 0.172439,0 0.938833,0.65143 1.724386,1.43698 0.785553,0.78556 1.571106,1.43699 1.724384,1.43699 0.172439,0 0.555635,0.24908 0.862193,0.57479 0.306556,0.30657 0.689753,0.5748 0.862192,0.5748 0.172439,0 0.689754,0.38319 1.149589,0.8622 0.459837,0.47899 0.996312,0.86219 1.16875,0.86219 0.172439,0 0.421516,0.13412 0.555635,0.28739 0.134119,0.15328 0.383198,0.2874 0.555635,0.2874 0.191599,0 0.574796,0.26824 0.881353,0.5748 0.306557,0.32571 0.689754,0.5748 0.881351,0.5748 0.172439,0 0.421517,0.13411 0.555636,0.28739 0.134118,0.15327 0.383197,0.2874 0.574795,0.2874 0.191598,0 0.440676,0.13411 0.574794,0.28739 0.13412,0.15328 0.383197,0.2874 0.574796,0.2874 0.191599,0 0.440676,0.13412 0.574794,0.2874 0.13412,0.15328 0.383197,0.28739 0.574796,0.28739 0.191598,0 0.440675,0.13412 0.574795,0.2874 0.134118,0.15328 0.383196,0.2874 0.574794,0.2874 0.191598,0 0.440677,0.13412 0.574795,0.28739 0.134119,0.15329 0.383197,0.2874 0.574795,0.2874 0.191598,0 0.440676,0.13413 0.574795,0.2874 0.134118,0.15328 0.383197,0.28739 0.574795,0.28739 0.191598,0 0.440676,0.13413 0.574795,0.2874 0.134118,0.15328 0.383197,0.2874 0.574795,0.2874 0.191598,0 0.440676,0.13412 0.574794,0.2874 0.13412,0.15328 0.517316,0.2874 0.862193,0.2874 0.344877,0 0.728073,0.13412 0.862192,0.2874 0.134119,0.15327 0.383197,0.28739 0.574795,0.28739 0.191598,0 0.440676,0.13413 0.574795,0.2874 0.134119,0.15328 0.517316,0.2874 0.862193,0.2874 0.344877,0 0.728073,0.13412 0.862192,0.2874 0.134118,0.15328 0.517315,0.2874 0.862193,0.2874 0.344876,0 0.728073,0.13411 0.862191,0.2874 0.134119,0.15327 0.517317,0.28739 0.862193,0.28739 0.344877,0 0.728073,0.13412 0.862193,0.2874 0.153278,0.17244 0.574794,0.2874 1.149589,0.2874 0.574795,0 0.996312,0.11495 1.14959,0.28739 0.153279,0.17244 0.574795,0.2874 1.149589,0.2874 0.574796,0 0.996312,0.11496 1.14959,0.2874 0.172439,0.1916 0.613115,0.28739 1.436987,0.28739 0.823874,0 1.26455,0.0958 1.436988,0.2874 0.191598,0.22991 0.708913,0.2874 2.29918,0.2874 1.590265,0 2.107581,0.0575 2.299179,0.28739 0.364037,0.44068 15.155426,0.44068 15.519466,0 0.17244,-0.21075 0.67059,-0.28739 2.01178,-0.28739 1.34119,0 1.83934,-0.0766 2.01178,-0.2874 0.17243,-0.21076 0.63227,-0.2874 1.72438,-0.2874 1.09212,0 1.55195,-0.0766 1.72439,-0.28739 0.15327,-0.17244 0.5748,-0.2874 1.14959,-0.2874 0.5748,0 0.99631,-0.11496 1.1496,-0.2874 0.15327,-0.17244 0.57479,-0.28739 1.14958,-0.28739 0.57479,0 0.99631,-0.11496 1.14959,-0.2874 0.15328,-0.17244 0.57479,-0.2874 1.14959,-0.2874 0.5748,0 0.99631,-0.11496 1.14959,-0.28739 0.13412,-0.15329 0.3832,-0.2874 0.5748,-0.2874 0.19159,0 0.44067,-0.13412 0.57479,-0.2874 0.13412,-0.15328 0.51732,-0.2874 0.8622,-0.2874 0.34487,0 0.72806,-0.13412 0.86219,-0.2874 0.13411,-0.15327 0.51731,-0.2874 0.86218,-0.2874 0.34488,0 0.72808,-0.13412 0.8622,-0.28739 0.13412,-0.15328 0.51731,-0.2874 0.86219,-0.2874 0.34488,0 0.72807,-0.13412 0.86219,-0.2874 0.13412,-0.15328 0.38319,-0.2874 0.5748,-0.2874 0.1916,0 0.44067,-0.13412 0.5748,-0.2874 0.13412,-0.15327 0.51731,-0.2874 0.86219,-0.2874 0.34488,0 0.72807,-0.13411 0.8622,-0.28739 0.1341,-0.15327 0.38319,-0.2874 0.57479,-0.2874 0.19159,0 0.44067,-0.13411 0.57479,-0.2874 0.13412,-0.15327 0.3832,-0.28739 0.57479,-0.28739 0.1916,0 0.44068,-0.13412 0.5748,-0.2874 0.13412,-0.15328 0.3832,-0.2874 0.57479,-0.2874 0.1916,0 0.44068,-0.13411 0.57479,-0.28739 0.13413,-0.15328 0.3832,-0.2874 0.5748,-0.2874 0.19161,0 0.44068,-0.13412 0.5748,-0.2874 0.13412,-0.15328 0.38319,-0.28739 0.55563,-0.28739 0.1916,0 0.5748,-0.26825 0.88135,-0.57479 0.30656,-0.32573 0.65144,-0.53648 0.78556,-0.49817 0.11496,0.0384 0.51731,-0.21075 0.86219,-0.57479 0.34488,-0.36404 0.76639,-0.65143 0.93883,-0.65143 0.17244,0 0.55564,-0.26824 0.86219,-0.5748 0.30656,-0.30656 0.68975,-0.57479 0.86219,-0.57479 0.17244,0 0.68976,-0.3832 1.1496,-0.8622 0.45983,-0.47899 0.97715,-0.86219 1.14959,-0.86219 0.15327,0 0.93882,-0.65143 1.72439,-1.43699 0.76638,-0.78555 1.5711,-1.43698 1.7627,-1.4753 0.45984,-0.0766 9.92479,-9.52244 9.92479,-9.9248 0,-0.17243 0.3832,-0.68975 0.86219,-1.14958 0.479,-0.45984 0.86219,-0.97716 0.86219,-1.1496 0,-0.17243 0.26824,-0.55563 0.5748,-0.86219 0.32572,-0.30656 0.57479,-0.68975 0.57479,-0.86219 0,-0.17244 0.26824,-0.55563 0.57479,-0.8622 0.32572,-0.30655 0.5748,-0.68975 0.5748,-0.86219 0,-0.17244 0.38319,-0.68975 0.86219,-1.14959 0.479,-0.45983 0.8622,-0.99631 0.8622,-1.16875 0,-0.17243 0.13411,-0.42152 0.2874,-0.55562 0.15327,-0.13413 0.2874,-0.38321 0.2874,-0.5748 0,-0.1916 0.1341,-0.44068 0.28739,-0.5748 0.15328,-0.13412 0.2874,-0.38319 0.2874,-0.55563 0,-0.1916 0.26823,-0.5748 0.57479,-0.88136 0.32572,-0.30656 0.5748,-0.68975 0.5748,-0.88135 0,-0.17243 0.13411,-0.42151 0.28739,-0.55563 0.15329,-0.13412 0.2874,-0.51732 0.2874,-0.8622 0,-0.34487 0.13412,-0.72807 0.2874,-0.86219 0.15328,-0.13412 0.28739,-0.3832 0.28739,-0.57479 0,-0.1916 0.13413,-0.44068 0.2874,-0.57479 0.15328,-0.13413 0.2874,-0.38321 0.2874,-0.5748 0,-0.1916 0.13412,-0.44068 0.28739,-0.5748 0.15329,-0.13412 0.2874,-0.38319 0.2874,-0.57479 0,-0.1916 0.13413,-0.44067 0.2874,-0.57479 0.15328,-0.13413 0.2874,-0.51732 0.2874,-0.8622 0,-0.34488 0.13412,-0.72807 0.2874,-0.86219 0.15327,-0.13412 0.2874,-0.51732 0.2874,-0.86219 0,-0.34488 0.13412,-0.72808 0.28739,-0.8622 0.15328,-0.13411 0.2874,-0.51731 0.2874,-0.86218 0,-0.34488 0.13412,-0.72809 0.2874,-0.8622 0.15327,-0.13412 0.28739,-0.51731 0.28739,-0.86219 0,-0.34488 0.13412,-0.72807 0.2874,-0.86219 0.17244,-0.15328 0.2874,-0.5748 0.2874,-1.1496 0,-0.57479 0.11496,-0.99631 0.2874,-1.14959 0.17244,-0.15327 0.2874,-0.57479 0.2874,-1.14959 0,-0.57479 0.11496,-0.99631 0.2874,-1.14958 0.19159,-0.17244 0.28739,-0.61312 0.28739,-1.43699 0,-0.82388 0.0958,-1.26455 0.2874,-1.43699 0.21076,-0.17244 0.2874,-0.63227 0.2874,-1.72439 0,-1.09211 0.0766,-1.55194 0.28739,-1.72438 0.22992,-0.1916 0.2874,-0.80471 0.2874,-3.16137 0,-2.35667 0.0575,-2.96978 0.28739,-3.16137 0.24909,-0.21076 0.2874,-1.20707 0.2874,-6.89754 0,-5.69047 -0.0383,-6.68678 -0.2874,-6.89754 -0.22991,-0.1916 -0.28739,-0.80472 -0.28739,-3.16137 0,-2.35666 -0.0575,-2.96977 -0.2874,-3.16138 -0.21076,-0.17244 -0.28739,-0.63228 -0.28739,-1.72438 0,-1.09211 -0.0767,-1.55194 -0.2874,-1.72438 -0.21076,-0.17244 -0.2874,-0.63228 -0.2874,-1.72439 0,-1.09211 -0.0767,-1.55195 -0.28739,-1.72439 -0.17244,-0.15327 -0.2874,-0.57479 -0.2874,-1.14959 0,-0.57479 -0.11496,-0.9963 -0.2874,-1.14958 -0.17244,-0.15328 -0.2874,-0.5748 -0.2874,-1.14959 0,-0.57479 -0.11496,-0.99631 -0.2874,-1.14959 -0.17243,-0.15328 -0.2874,-0.5748 -0.2874,-1.14959 0,-0.5748 -0.11495,-0.99631 -0.28739,-1.1496 -0.17244,-0.15327 -0.2874,-0.57479 -0.2874,-1.14959 0,-0.57479 -0.11496,-0.9963 -0.2874,-1.14958 -0.15327,-0.13412 -0.28739,-0.51731 -0.28739,-0.86219 0,-0.34488 -0.13413,-0.72808 -0.2874,-0.86219 -0.17244,-0.15329 -0.2874,-0.5748 -0.2874,-1.1496 0,-0.57479 -0.11496,-0.99631 -0.2874,-1.14959 -0.15327,-0.13412 -0.2874,-0.51732 -0.2874,-0.86219 0,-0.34488 -0.13411,-0.72807 -0.2874,-0.8622 -0.15327,-0.13411 -0.28739,-0.51731 -0.28739,-0.86219 0,-0.34487 -0.13412,-0.72807 -0.2874,-0.86219 -0.15327,-0.13411 -0.2874,-0.51731 -0.2874,-0.86219 0,-0.34488 -0.13411,-0.72807 -0.28739,-0.86219 -0.15328,-0.13412 -0.2874,-0.51732 -0.2874,-0.8622 0,-0.34487 -0.13411,-0.72806 -0.2874,-0.86219 -0.17244,-0.15327 -0.28739,-0.57479 -0.28739,-1.14959 0,-0.5748 -0.11496,-0.99631 -0.2874,-1.14959 -0.15328,-0.13411 -0.2874,-0.38319 -0.2874,-0.57479 0,-0.1916 -0.13412,-0.44068 -0.28739,-0.57479 -0.15329,-0.13412 -0.2874,-0.51731 -0.2874,-0.86219 0,-0.34488 -0.13412,-0.72808 -0.2874,-0.86219 -0.15329,-0.13413 -0.28739,-0.51732 -0.28739,-0.8622 0,-0.34488 -0.13413,-0.72807 -0.2874,-0.86219 -0.15329,-0.13413 -0.2874,-0.51732 -0.2874,-0.8622 0,-0.34487 -0.13412,-0.72807 -0.2874,-0.86219 -0.15328,-0.13412 -0.2874,-0.51732 -0.2874,-0.86219 0,-0.34488 -0.13412,-0.72808 -0.2874,-0.86219 -0.17244,-0.15329 -0.28739,-0.5748 -0.28739,-1.14959 0,-0.57479 -0.11496,-0.99632 -0.2874,-1.14959 -0.15328,-0.13412 -0.2874,-0.51732 -0.2874,-0.8622 0,-0.34487 -0.13412,-0.72806 -0.2874,-0.86219 -0.15327,-0.13412 -0.2874,-0.51732 -0.2874,-0.86219 0,-0.34488 -0.13411,-0.72807 -0.28739,-0.8622 -0.15328,-0.13411 -0.2874,-0.51731 -0.2874,-0.86219 0,-0.34487 -0.13411,-0.72807 -0.2874,-0.86218 -0.19159,-0.17244 -0.28739,-0.61313 -0.28739,-1.43699 0,-0.82388 -0.0958,-1.26455 -0.2874,-1.43699 -0.1916,-0.17244 -0.2874,-0.61311 -0.2874,-1.43699 0,-0.82387 -0.0958,-1.26455 -0.2874,-1.43699 -0.22992,-0.19159 -0.28739,-0.72807 -0.28739,-2.58657 0,-1.85851 -0.0575,-2.39498 -0.2874,-2.58658 -0.22992,-0.1916 -0.2874,-0.90051 -0.2874,-4.02357 0,-3.12305 0.0575,-3.83197 0.2874,-4.02356 0.1916,-0.17244 0.2874,-0.61311 0.2874,-1.43699 0,-0.82387 0.0958,-1.26455 0.28739,-1.43699 0.17244,-0.15328 0.2874,-0.5748 0.2874,-1.14959 0,-0.57479 0.11496,-0.99631 0.2874,-1.14958 0.3832,-0.32573 0.3832,-1.51364 -0.0191,-1.66691 -0.15327,-0.0575 -0.38319,-0.0191 -0.51732,0.11496 -0.11496,0.11496 -0.34487,0.21075 -0.51731,0.21075 -0.17244,0 -0.55563,0.24908 -0.86219,0.5748 -0.30655,0.30656 -0.68975,0.57479 -0.88135,0.57479 -0.17244,0 -0.42152,0.13413 -0.55563,0.2874 -0.13413,0.15328 -0.38321,0.2874 -0.55564,0.2874 -0.17244,0 -0.70892,0.38319 -1.16875,0.86219 -0.45984,0.47899 -0.97716,0.8622 -1.14959,0.8622 -0.17244,0 -0.68976,0.38319 -1.1496,0.86219 -0.45983,0.47899 -0.97715,0.86218 -1.13042,0.86218 -0.40236,0 -5.9587,5.55636 -5.9587,5.93955 0,0.17244 -0.51732,0.80472 -1.1496,1.43699 -0.63227,0.63228 -1.14959,1.26455 -1.14959,1.43699 0,0.17244 -0.38319,0.68976 -0.86219,1.14959 -0.479,0.45984 -0.8622,0.99632 -0.8622,1.16876 0,0.17244 -0.13411,0.42151 -0.28739,0.55563 -0.15328,0.13412 -0.2874,0.38319 -0.2874,0.5748 0,0.19159 -0.13411,0.44067 -0.2874,0.57479 -0.15328,0.13411 -0.28739,0.3832 -0.28739,0.5748 0,0.19159 -0.13412,0.44067 -0.2874,0.57479 -0.15328,0.13412 -0.2874,0.3832 -0.2874,0.57479 0,0.1916 -0.13411,0.44068 -0.2874,0.57479 -0.15328,0.13413 -0.28739,0.38321 -0.28739,0.5748 0,0.1916 -0.13412,0.44068 -0.2874,0.5748 -0.15328,0.13412 -0.28739,0.38319 -0.28739,0.57479 0,0.1916 -0.13413,0.44068 -0.2874,0.5748 -0.15329,0.13412 -0.2874,0.51731 -0.2874,0.86219 0,0.34488 -0.13412,0.72807 -0.2874,0.8622 -0.15328,0.13411 -0.2874,0.51731 -0.2874,0.86219 0,0.34488 -0.13412,0.72807 -0.2874,0.86219 -0.17243,0.15328 -0.28739,0.57479 -0.28739,1.14958 0,0.5748 -0.11496,0.99632 -0.2874,1.14959 -0.17244,0.15329 -0.2874,0.5748 -0.2874,1.1496 0,0.57479 -0.11495,0.99631 -0.28739,1.14959 -0.19161,0.15327 -0.2874,0.59395 -0.2874,1.34118 0,0.59396 -0.0575,1.14959 -0.11496,1.20707 -0.1916,0.17244 -2.35666,-2.20338 -2.37582,-2.56742 0,-0.17244 -0.13412,-0.42151 -0.2874,-0.55563 -0.15328,-0.13412 -0.28739,-0.38319 -0.28739,-0.57479 0,-0.1916 -0.13413,-0.44067 -0.2874,-0.5748 -0.15328,-0.13412 -0.2874,-0.51732 -0.2874,-0.86219 0,-0.34488 -0.13412,-0.72807 -0.28739,-0.8622 -0.19161,-0.17244 -0.2874,-0.61311 -0.2874,-1.43698 0,-0.82387 -0.0958,-1.26455 -0.2874,-1.43698 -0.22992,-0.19161 -0.2874,-0.82388 -0.2874,-3.44878 0,-2.6249 0.0575,-3.25717 0.2874,-3.44876 0.1916,-0.17244 0.2874,-0.61312 0.2874,-1.43699 0,-0.82388 0.0958,-1.26455 0.2874,-1.43699 0.15327,-0.13412 0.28739,-0.51732 0.28739,-0.8622 0,-0.34487 0.13412,-0.72807 0.2874,-0.86219 0.15327,-0.13411 0.2874,-0.51732 0.2874,-0.86219 0,-0.34488 0.13411,-0.72807 0.28739,-0.8622 0.15328,-0.13411 0.2874,-0.51731 0.2874,-0.86219 0,-0.34488 0.13411,-0.72807 0.2874,-0.86219 0.15328,-0.13412 0.2874,-0.51731 0.2874,-0.86219 0,-0.34487 0.13411,-0.72808 0.2874,-0.86219 0.15327,-0.13412 0.28739,-0.51732 0.28739,-0.86219 0,-0.34488 0.13412,-0.72808 0.2874,-0.8622 0.15328,-0.13412 0.28739,-0.51731 0.28739,-0.86219 0,-0.34488 0.13412,-0.72807 0.2874,-0.86219 0.15328,-0.13412 0.28739,-0.51732 0.28739,-0.8622 0,-0.34488 0.13413,-0.72807 0.2874,-0.86219 0.15329,-0.13411 0.2874,-0.51731 0.2874,-0.86219 0,-0.34487 0.13412,-0.72808 0.2874,-0.86219 0.17244,-0.15328 0.2874,-0.57479 0.2874,-1.14959 0,-0.5748 0.11496,-0.99632 0.2874,-1.14959 0.17244,-0.15328 0.28739,-0.5748 0.28739,-1.149593 0,-0.574794 0.11496,-0.99631 0.2874,-1.149589 0.17244,-0.153279 0.2874,-0.574796 0.2874,-1.14959 0,-0.574795 0.11496,-0.996311 0.28739,-1.14959 0.21076,-0.172439 0.2874,-0.632274 0.2874,-1.724385 0,-1.09211 0.0767,-1.551946 0.2874,-1.724384 0.21076,-0.172439 0.2874,-0.670595 0.2874,-2.011782 0,-1.341189 0.0766,-1.839344 0.2874,-2.011783 0.24907,-0.210758 0.2874,-1.283708 0.2874,-7.472333 0,-6.188626 -0.0384,-7.261576 -0.2874,-7.472334 -0.22992,-0.191599 -0.2874,-0.728074 -0.2874,-2.586577 0,-1.858504 -0.0575,-2.394979 -0.2874,-2.586577 -0.1916,-0.172439 -0.2874,-0.613115 -0.2874,-1.436987 0,-0.823873 -0.0958,-1.264549 -0.2874,-1.436988 -0.1916,-0.172438 -0.28739,-0.613114 -0.28739,-1.436987 0,-0.823873 -0.0958,-1.264549 -0.2874,-1.436987 -0.15327,-0.134119 -0.2874,-0.517316 -0.2874,-0.862193 0,-0.344876 -0.13412,-0.728073 -0.28739,-0.862192 -0.17244,-0.153271 -0.2874,-0.574787 -0.2874,-1.149582 0,-0.574776 -0.11496,-0.996292 -0.2874,-1.149571 -0.15328,-0.134119 -0.2874,-0.517315 -0.2874,-0.862192 0,-0.344877 -0.13411,-0.728073 -0.2874,-0.862192 -0.15327,-0.134119 -0.2874,-0.517316 -0.2874,-0.862193 0,-0.344876 -0.13411,-0.728074 -0.28739,-0.862192 -0.15328,-0.134119 -0.2874,-0.383197 -0.2874,-0.574795 0,-0.191602 -0.13411,-0.44068 -0.28739,-0.574799 -0.15328,-0.134118 -0.2874,-0.517315 -0.2874,-0.862192 0,-0.344877 -0.13412,-0.728074 -0.28739,-0.862193 -0.15329,-0.134118 -0.2874,-0.383196 -0.2874,-0.574795 0,-0.191598 -0.13412,-0.440675 -0.2874,-0.574795 -0.15329,-0.134118 -0.2874,-0.383196 -0.2874,-0.574794 0,-0.191598 -0.13412,-0.440677 -0.2874,-0.574795 -0.15328,-0.134119 -0.28739,-0.383197 -0.28739,-0.574795 0,-0.191598 -0.13413,-0.440676 -0.2874,-0.574795 -0.15328,-0.134118 -0.2874,-0.383196 -0.2874,-0.574795 0,-0.191598 -0.13412,-0.440676 -0.28739,-0.574794 -0.15328,-0.134119 -0.2874,-0.383198 -0.2874,-0.555636 0,-0.191598 -0.24909,-0.574795 -0.5748,-0.881352 -0.30656,-0.306557 -0.5748,-0.689754 -0.5748,-0.881351 0,-0.172439 -0.13412,-0.421517 -0.28739,-0.555636 -0.15328,-0.134118 -0.2874,-0.383197 -0.2874,-0.555635 0,-0.191599 -0.24907,-0.574796 -0.5748,-0.881352 -0.30655,-0.306558 -0.5748,-0.689754 -0.5748,-0.862193 0,-0.172438 -0.24907,-0.555635 -0.57479,-0.862192 -0.30655,-0.306558 -0.57479,-0.689754 -0.57479,-0.862192 0,-0.172439 -0.3832,-0.689754 -0.86219,-1.149591 -0.479,-0.459835 -0.86219,-0.97715 -0.86219,-1.149589 0,-0.172439 -0.51732,-0.804713 -1.14959,-1.436988 -0.63228,-0.632274 -1.1496,-1.264548 -1.1496,-1.436987 0,-0.383197 -9.00511,-9.388316 -9.38831,-9.388316 -0.17244,0 -0.80471,-0.517316 -1.43699,-1.14959 -0.63227,-0.632274 -1.28371,-1.14959 -1.43698,-1.14959 -0.17244,0 -0.55564,-0.268238 -0.8622,-0.574795 -0.30656,-0.325717 -0.68975,-0.574796 -0.86219,-0.574796 -0.17244,0 -0.55564,-0.268234 -0.8622,-0.57479 -0.30655,-0.325722 -0.68975,-0.574798 -0.86219,-0.574798 -0.17243,0 -0.55563,-0.268234 -0.86218,-0.574799 -0.7856,-0.823867 -1.05384,-0.74723 -1.05384,0.268242 z M 98.452961,147.30101 c 0.17244,0.21076 0.670593,0.2874 2.011779,0.2874 1.34119,0 1.83935,0.0766 2.01179,0.28739 0.15327,0.17244 0.57479,0.2874 1.14958,0.2874 0.57479,0 0.99631,0.11496 1.14959,0.28739 0.13412,0.15329 0.51731,0.2874 0.86219,0.2874 0.34488,0 0.72807,0.13412 0.86219,0.2874 0.13413,0.15329 0.51732,0.2874 0.8622,0.2874 0.34488,0 0.72807,0.13412 0.86219,0.2874 0.13412,0.15328 0.3832,0.2874 0.5748,0.2874 0.19159,0 0.44067,0.13412 0.57479,0.28739 0.13411,0.15328 0.3832,0.2874 0.5748,0.2874 0.19159,0 0.44067,0.13412 0.5748,0.2874 0.13411,0.15328 0.38319,0.2874 0.57479,0.2874 0.1916,0 0.44068,0.13412 0.57479,0.2874 0.13412,0.15327 0.3832,0.2874 0.5748,0.2874 0.19159,0 0.44067,0.13411 0.57479,0.28739 0.13412,0.15327 0.3832,0.2874 0.55564,0.2874 0.17243,0 0.70891,0.38319 1.16875,0.86219 0.45984,0.47899 0.97715,0.8622 1.14959,0.8622 0.15327,0 1.01547,0.72806 1.91597,1.62858 0.90052,0.90051 1.70523,1.62858 1.80103,1.62858 0.0958,0 0.3832,-0.1916 0.63228,-0.42151 0.36403,-0.34488 0.44067,-0.61312 0.44067,-1.60943 0,-0.78555 0.0958,-1.24539 0.26824,-1.41783 0.15328,-0.11496 0.30656,-0.49815 0.34488,-0.82387 l 0.0575,-0.61311 h 8.33452 8.33452 v 37.93646 37.93646 l -8.89016,0.0575 c -8.06628,0.0384 -8.92847,0.0191 -9.25419,-0.26824 -0.30656,-0.2874 -0.34488,-0.65144 -0.34488,-2.95062 0,-2.10758 -0.0575,-2.68237 -0.28739,-2.87396 -0.1916,-0.17244 -0.2874,-0.61312 -0.2874,-1.47531 0,-1.85851 -0.24908,-1.80103 -2.56742,0.49815 -1.07295,1.05379 -2.06926,1.93514 -2.2417,1.93514 -0.15327,0 -0.67059,0.3832 -1.13043,0.86219 -0.45984,0.479 -0.99632,0.8622 -1.16876,0.8622 -0.17244,0 -0.42151,0.13411 -0.55563,0.2874 -0.13412,0.15327 -0.38319,0.2874 -0.55563,0.2874 -0.1916,0 -0.57479,0.24907 -0.88135,0.57479 -0.30657,0.30655 -0.68976,0.57479 -0.88136,0.57479 -0.17243,0 -0.42151,0.13412 -0.55564,0.2874 -0.13411,0.15328 -0.38319,0.2874 -0.57479,0.2874 -0.19159,0 -0.44067,0.13412 -0.57479,0.28739 -0.13412,0.15329 -0.3832,0.2874 -0.5748,0.2874 -0.19159,0 -0.44068,0.13412 -0.57479,0.2874 -0.13412,0.15328 -0.3832,0.28739 -0.57479,0.28739 -0.1916,0 -0.44069,0.13413 -0.5748,0.2874 -0.13412,0.15329 -0.51732,0.2874 -0.86219,0.2874 -0.34488,0 -0.72807,0.13412 -0.8622,0.2874 -0.13412,0.15328 -0.38319,0.2874 -0.57479,0.2874 -0.1916,0 -0.44068,0.13412 -0.5748,0.2874 -0.15328,0.17244 -0.5748,0.28739 -1.14959,0.28739 -0.57479,0 -0.996302,0.11496 -1.149585,0.2874 -0.172439,0.21076 -0.63227,0.2874 -1.724387,0.2874 -1.092108,0 -1.551946,0.0766 -1.724384,0.28739 -0.191595,0.22993 -0.91967,0.2874 -4.310961,0.2874 -3.391289,0 -4.119363,-0.0575 -4.310961,-0.2874 -0.172438,-0.19159 -0.613114,-0.28739 -1.436987,-0.28739 -0.823873,0 -1.264549,-0.0958 -1.436987,-0.2874 -0.153279,-0.17244 -0.574795,-0.2874 -1.149591,-0.2874 -0.574794,0 -0.99631,-0.11495 -1.149589,-0.28739 -0.134119,-0.15328 -0.517315,-0.2874 -0.862192,-0.2874 -0.344877,0 -0.728074,-0.13412 -0.862193,-0.2874 -0.134119,-0.15328 -0.383197,-0.2874 -0.574794,-0.2874 -0.191598,0 -0.440677,-0.13411 -0.574796,-0.2874 -0.134119,-0.15327 -0.383196,-0.2874 -0.574794,-0.2874 -0.191599,0 -0.440677,-0.13411 -0.574795,-0.28739 -0.134119,-0.15328 -0.383197,-0.2874 -0.574796,-0.2874 -0.191597,0 -0.440675,-0.13411 -0.574794,-0.2874 -0.134118,-0.15327 -0.383197,-0.28739 -0.574795,-0.28739 -0.191598,0 -0.440676,-0.13412 -0.574795,-0.2874 -0.134119,-0.15328 -0.383196,-0.2874 -0.555635,-0.2874 -0.191598,0 -0.574795,-0.26824 -0.881352,-0.57479 -0.306557,-0.32572 -0.689754,-0.57479 -0.843032,-0.57479 -0.402357,0 -7.299896,-6.89754 -7.299896,-7.28075 0,-0.17244 -0.383197,-0.68975 -0.862193,-1.14958 -0.478996,-0.45983 -0.862192,-0.99631 -0.862192,-1.16875 0,-0.17244 -0.134118,-0.42152 -0.287397,-0.55563 -0.153279,-0.13413 -0.287398,-0.3832 -0.287398,-0.5748 0,-0.1916 -0.134118,-0.44068 -0.287397,-0.57479 -0.153279,-0.13413 -0.287398,-0.3832 -0.287398,-0.5748 0,-0.1916 -0.134118,-0.44067 -0.287397,-0.5748 -0.153279,-0.13412 -0.287397,-0.38319 -0.287397,-0.57479 0,-0.1916 -0.134119,-0.44068 -0.287398,-0.5748 -0.153279,-0.13411 -0.287397,-0.38319 -0.287397,-0.5748 0,-0.19159 -0.13412,-0.44067 -0.287398,-0.57479 -0.153278,-0.13412 -0.287397,-0.3832 -0.287397,-0.57479 0,-0.1916 -0.134119,-0.44068 -0.287397,-0.57479 -0.153279,-0.13412 -0.287399,-0.51732 -0.287399,-0.8622 0,-0.34487 -0.134118,-0.72807 -0.287397,-0.86219 -0.153278,-0.13412 -0.287397,-0.51732 -0.287397,-0.86219 0,-0.34488 -0.134119,-0.72807 -0.287397,-0.8622 -0.172439,-0.15327 -0.287398,-0.57479 -0.287398,-1.14958 0,-0.5748 -0.114959,-0.99631 -0.287398,-1.1496 -0.153278,-0.13411 -0.287397,-0.51731 -0.287397,-0.86219 0,-0.34487 -0.134119,-0.72808 -0.287397,-0.86219 -0.229918,-0.1916 -0.287397,-0.70891 -0.287397,-2.29918 0,-1.59026 -0.05748,-2.10758 -0.287398,-2.29918 -0.249078,-0.19159 -0.287398,-1.01547 -0.287398,-5.17316 0,-4.15767 0.03831,-4.98155 0.287398,-5.17315 0.210758,-0.17244 0.287398,-0.63227 0.287398,-1.72438 0,-1.09211 0.07664,-1.55195 0.287397,-1.72439 0.191598,-0.17244 0.287397,-0.61311 0.287397,-1.43699 0,-0.82386 0.0958,-1.26454 0.287397,-1.43698 0.172439,-0.15329 0.287398,-0.5748 0.287398,-1.14959 0,-0.57479 0.114959,-0.99631 0.287398,-1.14959 0.172438,-0.15328 0.287397,-0.5748 0.287397,-1.14959 0,-0.5748 0.114959,-0.99631 0.287397,-1.14959 0.153279,-0.13411 0.287397,-0.3832 0.287397,-0.5748 0,-0.19159 0.13412,-0.44067 0.287399,-0.57479 0.153278,-0.13412 0.287397,-0.51731 0.287397,-0.86219 0,-0.34488 0.134119,-0.72808 0.287397,-0.86219 0.153278,-0.13412 0.287398,-0.3832 0.287398,-0.5748 0,-0.1916 0.134118,-0.44067 0.287397,-0.57479 0.153279,-0.13413 0.287398,-0.51732 0.287398,-0.8622 0,-0.34487 0.134118,-0.72807 0.287397,-0.86219 0.153279,-0.13412 0.287397,-0.3832 0.287397,-0.5748 0,-0.19159 0.134119,-0.44067 0.287398,-0.57479 0.153279,-0.13411 0.287397,-0.38319 0.287397,-0.5748 0,-0.19159 0.134119,-0.44067 0.287398,-0.57479 0.153279,-0.13412 0.287397,-0.3832 0.287397,-0.55564 0,-0.19159 0.268238,-0.57479 0.574795,-0.88134 0.325717,-0.30656 0.574796,-0.68976 0.574796,-0.8622 0,-0.17244 0.268237,-0.55563 0.574794,-0.86219 0.325717,-0.30656 0.574795,-0.68976 0.574795,-0.86219 0,-0.17244 0.268237,-0.55563 0.574794,-0.8622 0.325718,-0.30655 0.574796,-0.68975 0.574796,-0.86219 0,-0.15328 0.651433,-0.93883 1.436987,-1.72438 0.785553,-0.78556 1.436987,-1.55195 1.436987,-1.70523 0,-0.3832 1.724385,-2.12673 2.107582,-2.12673 0.153278,0 0.938831,-0.65145 1.724384,-1.437 0.785554,-0.78555 1.571106,-1.43698 1.724385,-1.43698 0.172439,0 0.555635,-0.26824 0.862193,-0.5748 0.306557,-0.32572 0.689754,-0.5748 0.862192,-0.5748 0.172438,0 0.555635,-0.26823 0.862192,-0.57479 0.306557,-0.32571 0.689754,-0.57479 0.881352,-0.57479 0.172438,0 0.421516,-0.13412 0.555635,-0.2874 0.134119,-0.15328 0.383197,-0.2874 0.574795,-0.2874 0.191599,0 0.440676,-0.13411 0.574795,-0.28739 0.134119,-0.15329 0.383196,-0.2874 0.574795,-0.2874 0.191598,0 0.440676,-0.13412 0.574795,-0.2874 0.134119,-0.15328 0.383197,-0.28739 0.574794,-0.28739 0.191599,0 0.440677,-0.13413 0.574796,-0.2874 0.134119,-0.15329 0.517316,-0.2874 0.862192,-0.2874 0.344878,0 0.728073,-0.13412 0.862193,-0.2874 0.134118,-0.15328 0.517315,-0.2874 0.862192,-0.2874 0.344877,0 0.728073,-0.13412 0.862192,-0.2874 0.153279,-0.17243 0.574795,-0.28739 1.14959,-0.28739 0.574795,0 0.996311,-0.11496 1.14959,-0.2874 0.172438,-0.21076 0.670594,-0.2874 2.011781,-0.2874 1.34119,0 1.839345,-0.0766 2.011783,-0.28739 0.1916,-0.22993 0.708915,-0.2874 2.299178,-0.2874 1.590267,0 2.107586,0.0575 2.299183,0.2874 z"
       id="path1"
       style="fill:#1e8dd9;fill-opacity:1;stroke:none;stroke-width:0.0191598" />
    <path
       d="m 96.690253,165.3304 c -0.229916,0.22993 -0.632276,0.30657 -1.456147,0.2874 -0.804714,-0.0191 -1.207069,0.0575 -1.379507,0.26825 -0.134116,0.15327 -0.383199,0.28739 -0.574793,0.28739 -0.191599,0 -0.440677,0.13412 -0.574799,0.2874 -0.134116,0.15328 -0.383195,0.28739 -0.574793,0.28739 -0.191598,0 -0.440676,0.13412 -0.574794,0.2874 -0.13412,0.15329 -0.383197,0.2874 -0.574796,0.2874 -0.191598,0 -0.440675,0.13412 -0.574795,0.2874 -0.134118,0.15328 -0.383196,0.2874 -0.555634,0.2874 -0.402357,0 -5.958708,5.55635 -5.958708,5.9587 0,0.17244 -0.134119,0.42152 -0.287398,0.55564 -0.153278,0.13412 -0.287396,0.3832 -0.287396,0.57479 0,0.19161 -0.13412,0.44068 -0.287398,0.5748 -0.153279,0.13412 -0.287398,0.38319 -0.287398,0.5748 0,0.19159 -0.134118,0.44067 -0.287397,0.57479 -0.153279,0.13412 -0.287398,0.3832 -0.287398,0.5748 0,0.19159 -0.134118,0.44067 -0.287397,0.57479 -0.153278,0.13411 -0.287397,0.51731 -0.287397,0.86219 0,0.34487 -0.134119,0.72808 -0.287398,0.86219 -0.153279,0.13412 -0.287397,0.51732 -0.287397,0.86219 0,0.34488 -0.134119,0.72808 -0.287398,0.8622 -0.229918,0.1916 -0.287397,0.59396 -0.268238,1.66691 0.01917,1.05378 -0.05748,1.49446 -0.287397,1.7627 -0.268237,0.2874 -0.306557,0.91968 -0.306557,4.33012 0,3.42961 0.03831,4.04272 0.306557,4.33012 0.229918,0.24908 0.306558,0.67059 0.287397,1.47531 -0.01916,0.80471 0.05748,1.20707 0.268238,1.37951 0.153279,0.13412 0.287398,0.51732 0.287398,0.86219 0,0.34488 0.134118,0.72807 0.287397,0.8622 0.153279,0.13411 0.287398,0.51731 0.287398,0.86219 0,0.34487 0.134119,0.72807 0.287397,0.86218 0.153279,0.13412 0.287397,0.3832 0.287397,0.5748 0,0.1916 0.134119,0.44068 0.287398,0.57479 0.153279,0.13413 0.287397,0.3832 0.287397,0.5748 0,0.1916 0.134119,0.44067 0.287398,0.57479 0.153278,0.13412 0.287398,0.3832 0.287398,0.55563 0,0.17244 0.383196,0.70892 0.862192,1.16876 0.478995,0.45984 0.862192,0.97716 0.862192,1.1496 0,0.38319 3.276331,3.64036 3.659527,3.64036 0.153279,0 0.536476,0.24907 0.843033,0.5748 0.306558,0.30655 0.689754,0.57479 0.881352,0.57479 0.172439,0 0.421517,0.13411 0.555635,0.2874 0.134119,0.15327 0.383197,0.28739 0.574796,0.28739 0.191598,0 0.440675,0.13412 0.574794,0.2874 0.134118,0.15328 0.383197,0.2874 0.574793,0.2874 0.1916,0 0.440677,0.13411 0.574799,0.28739 0.134116,0.17244 0.555632,0.26824 1.072947,0.24908 0.536477,0 0.977154,0.0958 1.20707,0.30656 0.478998,0.44068 7.127457,0.45984 7.491497,0.0191 0.13412,-0.15328 0.51731,-0.2874 0.86218,-0.2874 0.34488,0 0.72809,-0.13412 0.8622,-0.2874 0.13412,-0.15327 0.51731,-0.28739 0.86219,-0.28739 0.34488,0 0.72807,-0.13413 0.86219,-0.2874 0.13413,-0.15328 0.3832,-0.2874 0.5748,-0.2874 0.1916,0 0.44067,-0.13412 0.5748,-0.2874 0.13411,-0.15328 0.38319,-0.2874 0.55563,-0.2874 0.1916,0 0.5748,-0.26823 0.88135,-0.57479 0.30656,-0.32572 0.68976,-0.5748 0.84303,-0.5748 0.40237,0 3.65954,-3.25717 3.65954,-3.64036 0,-0.17244 0.26823,-0.55564 0.57479,-0.8622 0.32572,-0.30655 0.5748,-0.68975 0.5748,-0.88134 0,-0.17244 0.13411,-0.42152 0.28739,-0.55565 0.15328,-0.13411 0.2874,-0.38319 0.2874,-0.55563 0,-0.19159 0.26824,-0.5748 0.57479,-0.88135 0.40236,-0.3832 0.5748,-0.72808 0.5748,-1.16875 0,-0.32572 0.13412,-0.70891 0.28739,-0.84303 0.15329,-0.13412 0.2874,-0.51732 0.2874,-0.8622 0,-0.34487 0.13412,-0.72806 0.2874,-0.86219 0.17244,-0.13411 0.26824,-0.55563 0.24908,-1.07295 0,-0.53648 0.0958,-0.97715 0.30656,-1.20707 0.21076,-0.22992 0.30655,-0.65143 0.28739,-1.43699 -0.0191,-0.76639 0.0575,-1.18791 0.2874,-1.43698 0.45983,-0.49816 0.45983,-7.58729 0,-8.08545 -0.22992,-0.24907 -0.30656,-0.67059 -0.2874,-1.47531 0.0191,-0.80472 -0.0575,-1.20707 -0.26824,-1.37951 -0.15327,-0.13411 -0.2874,-0.51731 -0.2874,-0.86218 0,-0.34488 -0.13411,-0.72809 -0.28739,-0.8622 -0.15328,-0.13412 -0.2874,-0.51731 -0.2874,-0.86219 0,-0.34488 -0.13411,-0.72807 -0.2874,-0.86219 -0.15327,-0.13412 -0.28739,-0.51732 -0.28739,-0.8622 0,-0.34487 -0.13412,-0.72807 -0.2874,-0.86219 -0.15328,-0.13412 -0.2874,-0.3832 -0.2874,-0.55564 0,-0.19159 -0.24907,-0.57479 -0.57479,-0.88135 -0.30655,-0.30655 -0.57479,-0.68975 -0.57479,-0.86219 0,-0.17243 -0.38321,-0.68975 -0.86219,-1.14959 -0.47901,-0.45983 -0.8622,-0.97715 -0.8622,-1.14959 0,-0.38319 -0.36404,-0.7664 -0.76639,-0.7664 -0.15328,0 -0.93884,-0.65142 -1.72438,-1.43698 -0.78556,-0.78555 -1.57111,-1.43698 -1.74355,-1.43698 -0.17244,0 -0.42152,-0.13413 -0.55564,-0.2874 -0.13412,-0.15328 -0.3832,-0.2874 -0.57479,-0.2874 -0.19161,0 -0.44068,-0.13412 -0.5748,-0.28739 -0.13412,-0.15329 -0.38319,-0.2874 -0.5748,-0.2874 -0.19159,0 -0.44067,-0.13412 -0.57479,-0.2874 -0.13412,-0.15328 -0.51732,-0.2874 -0.86219,-0.2874 -0.34488,0 -0.72808,-0.13412 -0.8622,-0.2874 -0.13411,-0.17244 -0.55563,-0.26823 -1.07295,-0.24908 -0.53647,0 -0.97715,-0.0958 -1.20707,-0.30655 -0.49815,-0.45984 -4.770789,-0.45984 -5.230627,0 z"
       id="path2"
       style="fill:#1e8dd9;fill-opacity:1;stroke:none;stroke-width:0.0191598" />
  </g>
</svg>
