<?xml version="1.0" encoding="UTF-8" standalone="no"?>
<svg
   version="1.0"
   width="3072.000000pt"
   height="3072.000000pt"
   viewBox="0 0 3072.000000 3072.000000"
   preserveAspectRatio="xMidYMid meet"
   id="svg21"
   sodipodi:docname="alterna_logo_v2.svg"
   inkscape:version="1.4 (86a8ad7, 2024-10-11)"
   xmlns:inkscape="http://www.inkscape.org/namespaces/inkscape"
   xmlns:sodipodi="http://sodipodi.sourceforge.net/DTD/sodipodi-0.dtd"
   xmlns="http://www.w3.org/2000/svg"
   xmlns:svg="http://www.w3.org/2000/svg">
  <defs
     id="defs21" />
  <sodipodi:namedview
     id="namedview21"
     pagecolor="#ffffff"
     bordercolor="#000000"
     borderopacity="0.25"
     inkscape:showpageshadow="2"
     inkscape:pageopacity="0.0"
     inkscape:pagecheckerboard="0"
     inkscape:deskcolor="#d1d1d1"
     inkscape:document-units="pt"
     inkscape:zoom="0.20146328"
     inkscape:cx="2365.1952"
     inkscape:cy="2015.2555"
     inkscape:window-width="1460"
     inkscape:window-height="1186"
     inkscape:window-x="5295"
     inkscape:window-y="68"
     inkscape:window-maximized="0"
     inkscape:current-layer="svg21" />
  <metadata
     id="metadata1">
Created by potrace 1.16, written by Peter Selinger 2001-2019
</metadata>
  <path
     d="m 775.1284,793.87472 c 0,2.6 0.6,4.8 1.5,5.6 0.8,0.7 1.5,2.7 1.5,4.5 0,1.8 0.7,3.8 1.5,4.5 1,0.9 1.5,3.2 1.5,7.5 0,4.3 0.5,6.6 1.5,7.5 1.3,1.1 1.5,6.2 1.5,34.5 0,28.3 -0.2,33.4 -1.5,34.5 -1,0.9 -1.5,3.2 -1.5,7.5 0,4.3 -0.5,6.6 -1.5,7.5 -0.9,0.8 -1.5,3 -1.5,6 0,3 -0.6,5.2 -1.5,6 -0.8,0.7 -1.5,2.7 -1.5,4.5 0,1.8 -0.7,3.8 -1.5,4.5 -0.8,0.7 -1.5,2.7 -1.5,4.5 0,1.8 -0.7,3.8 -1.5,4.5 -0.8,0.7 -1.5,2.7 -1.5,4.5 0,1.8 -0.7,3.8 -1.5,4.5 -0.8,0.7 -1.5,2 -1.5,3 0,1 -0.7,2.3 -1.5,3 -0.8,0.7 -1.5,2.7 -1.5,4.5 0,1.8 -0.7,3.8 -1.5,4.5 -0.8,0.7 -1.5,2 -1.5,3 0,1 -0.7,2.30002 -1.5,3.00002 -0.8,0.7 -1.5,2 -1.5,3 0,1 -0.7,2.3 -1.5,3 -0.8,0.7 -1.5,2 -1.5,3 0,1 -0.7,2.3 -1.5,3 -0.8,0.7 -1.5,2 -1.5,2.9 0,1 -1.3,3 -3,4.6 -1.6,1.6 -3,3.6 -3,4.6 0,0.9 -0.7,2.1999 -1.5,2.8999 -0.8,0.7 -1.5,2 -1.5,2.9 0,1 -1.3,2.99996 -3,4.59996 -1.6,1.6 -3,3.6 -3,4.5 0,0.9 -1.3,2.9 -3,4.5 -1.6,1.6 -3,3.6 -3,4.5 0,0.9 -1.3,2.9 -3,4.5 -1.6,1.6 -3,3.6 -3,4.5 0,0.9 -1.3,2.9 -3,4.5 -1.6,1.6 -3,3.6 -3,4.5 0,0.8 -2.7,4.2 -6,7.5 -3.3,3.3 -6,6.6 -6,7.5 0,0.9 -2.7,4.2 -6,7.5 -3.3,3.3 -6,6.6 -6,7.5 0,0.8 -3.4,4.9 -7.5,9 -4.1,4.1 -7.5,8.1 -7.5,9 0,0.8 -5.4,6.9 -12,13.5 -6.6,6.6 -12,12.7 -12,13.5 0,0.8 -5.4,6.9 -12,13.5 -6.6,6.6 -12,12.7 -12,13.5 0,0.8 -8.1,9.6 -18,19.5 -9.9,9.9 -18,18.7 -18,19.5 0,0.8 -6.1,7.6 -13.5,15 -7.4,7.4 -13.5,14.2 -13.5,15 0,0.8 -7.4,8.9 -16.5,18 -9.1,9.1 -16.5,17.2 -16.5,18 0,0.9 -3.4,4.9 -7.5,9 -4.1,4.1 -7.5,8.1 -7.5,9 0,0.9 -3.4,4.9 -7.5,9 -4.1,4.1 -7.5,8.2 -7.5,9 0,0.9 -2.7,4.2 -6,7.5 -3.3,3.3 -6,6.6 -6,7.5 0,0.9 -2,3.6 -4.5,6 -2.5,2.4 -4.5,5.1 -4.5,6 0,0.9 -2,3.6 -4.5,6 -2.5,2.4 -4.5,5.1 -4.5,6 0,0.9 -1.3,2.9 -3,4.5 -1.6,1.6 -3,3.6 -3,4.5 0,0.9 -1.3,2.9 -3,4.5 -1.6,1.6 -3,3.6 -3,4.5 0,0.9 -1.3,2.9 -3,4.5 -1.6,1.6 -3,3.6 -3,4.5 0,0.9 -1.3,2.9 -3,4.5 -1.6,1.6 -3,3.6 -3,4.5 0,0.9 -1.3,2.9 -3,4.5 -1.6,1.6 -3,3.6 -3,4.6 0,0.9 -0.7,2.2 -1.5,2.9 -0.8,0.7 -1.5,2 -1.5,3 0,1 -0.7,2.3 -1.5,3 -0.8,0.7 -1.5,2 -1.5,2.9 0,1 -1.3,3 -3,4.6 -1.7,1.6 -3,3.6 -3,4.6 0,0.9 -0.7,2.2 -1.5,2.9 -0.8,0.7 -1.5,2 -1.5,3 0,1 -0.7,2.3 -1.5,3 -0.8,0.7 -1.5,2 -1.5,3 0,1 -0.7,2.3 -1.5,3 -0.8,0.7 -1.5,2 -1.5,3 0,1 -0.7,2.3 -1.5,3 -0.8,0.7 -1.5,2 -1.5,3 0,1 -0.7,2.3 -1.5,3 -0.8,0.7 -1.5,2 -1.5,3 0,1 -0.7,2.3 -1.5,3 -0.8,0.7 -1.5,2 -1.5,3 0,1 -0.7,2.3 -1.5,3 -0.8,0.7 -1.5,2 -1.5,3 0,1 -0.7,2.3 -1.5,3 -0.8,0.7 -1.5,2.7 -1.5,4.5 0,1.8 -0.7,3.8 -1.5,4.5 -0.8,0.7 -1.5,2 -1.5,3 0,1 -0.7,2.3 -1.5,3 -0.8,0.7 -1.5,2.7 -1.5,4.5 0,1.8 -0.7,3.8 -1.5,4.5 -0.8,0.7 -1.5,2 -1.5,3 0,1 -0.7,2.3 -1.5,3 -0.8,0.7 -1.5,2.7 -1.5,4.5 0,1.8 -0.7,3.8 -1.5,4.5 -0.8,0.7 -1.5,2.7 -1.5,4.5 0,1.8 -0.7,3.8 -1.5,4.5 -0.8,0.7 -1.5,2.7 -1.5,4.5 0,1.8 -0.7,3.8 -1.5,4.5 -0.9,0.8 -1.5,3 -1.5,6 0,3 -0.6,5.2 -1.5,6 -0.8,0.7 -1.5,2.7 -1.5,4.5 0,1.8 -0.7,3.8 -1.5,4.5 -0.9,0.8 -1.5,3 -1.5,6 0,3 -0.6,5.2 -1.5,6 -1,0.9 -1.5,3.2 -1.5,7.5 0,4.3 -0.5,6.6 -1.5,7.5 -1,0.9 -1.5,3.2 -1.5,7.5 0,4.3 -0.5,6.6 -1.5,7.5 -1,0.9 -1.5,3.2 -1.5,7.5 0,4.3 -0.5,6.6 -1.5,7.5 -1.2,1 -1.5,3.8 -1.5,13.5 0,9.7 -0.3,12.5 -1.5,13.5 -2.3,1.9 -2.3,94.1 0,96 1.2,1 1.5,3.7 1.5,12 0,8.3 0.3,11 1.5,12 1.1,0.9 1.5,3.3 1.5,9 0,5.7 0.4,8.1 1.5,9 1,0.9 1.5,3.2 1.5,7.5 0,4.3 0.5,6.6 1.5,7.5 0.9,0.8 1.5,3 1.5,6 0,3 0.6,5.2 1.5,6 0.9,0.8 1.5,3 1.5,6 0,3 0.6,5.2 1.5,6 0.8,0.7 1.5,2.7 1.5,4.5 0,1.8 0.7,3.8 1.5,4.5 0.8,0.7 1.5,2.7 1.5,4.5 0,1.8 0.7,3.8 1.5,4.5 0.8,0.7 1.5,2.7 1.5,4.5 0,1.8 0.7,3.8 1.5,4.5 0.8,0.7 1.5,2.7 1.5,4.5 0,1.8 0.7,3.8 1.5,4.5 0.8,0.7 1.5,2.7 1.5,4.5 0,1.8 0.7,3.8 1.5,4.5 0.8,0.7 1.5,2 1.5,3 0,1 0.7,2.3 1.5,3 0.8,0.7 1.5,2 1.5,3 0,1 0.7,2.3 1.5,3 0.8,0.7 1.5,2.7 1.5,4.5 0,1.8 0.7,3.8 1.5,4.5 0.8,0.7 1.5,2 1.5,3 0,1 0.7,2.3 1.5,3 0.8,0.7 1.5,2 1.5,3 0,1 0.7,2.3 1.5,3 0.8,0.7 1.5,2 1.5,3 0,1 0.7,2.3 1.5,3 0.8,0.7 1.5,2 1.5,2.9 0,1 1.3,3 3,4.6 1.6,1.6 3,3.6 3,4.6 0,0.9 0.7,2.2 1.5,2.9 0.8,0.7 1.5,2 1.5,2.9 0,1 1.4,3 3,4.6 1.7,1.6 3,3.6 3,4.5 0,0.9 1.3,2.9 3,4.5 1.6,1.6 3,3.6 3,4.5 0,0.9 1.4,2.9 3,4.5 1.7,1.6 3,3.6 3,4.5 0,0.9 2,3.6 4.5,6 2.5,2.4 4.5,5.1 4.5,6 0,0.9 2,3.6 4.5,6 2.5,2.4 4.5,5.1 4.5,5.9 0,2.1 38,40.1 40,40.1 0.9,0 4.9,3.4 9,7.5 4.1,4.1 8.2,7.5 9,7.5 0.9,0 2.9,1.3 4.5,3 1.6,1.6 3.6,3 4.5,3 0.9,0 3.6,2 6,4.5 2.4,2.5 5.2,4.5 6.1,4.5 0.9,0 2.2,0.7 2.9,1.5 0.7,0.8 2,1.5 2.9,1.5 1,0 3,1.4 4.6,3 1.6,1.7 3.6,3 4.6,3 0.9,0 2.2,0.7 2.9,1.5 0.7,0.8 2,1.5 3,1.5 1,0 2.3,0.7 3,1.5 0.7,0.8 2,1.5 3,1.5 1,0 2.3,0.7 3,1.5 0.7,0.8 2,1.5 3,1.5 1,0 2.3,0.7 3,1.5 0.7,0.8 2,1.5 3,1.5 1,0 2.3,0.7 3,1.5 0.7,0.8 2,1.5 3,1.5 1,0 2.3,0.7 3,1.5 0.7,0.8 2,1.5 3,1.5 1,0 2.3,0.7 3,1.5 0.7,0.8 2,1.5 3,1.5 1,0 2.3,0.7 3,1.5 0.7,0.8 2.7,1.5 4.5,1.5 1.8,0 3.8,0.7 4.5,1.5 0.7,0.8 2,1.5 3,1.5 1,0 2.3,0.7 3,1.5 0.7,0.8 2.7,1.5 4.5,1.5 1.8,0 3.8,0.7 4.5,1.5 0.7,0.8 2.7,1.5 4.5,1.5 1.8,0 3.8,0.7 4.5,1.5 0.7,0.8 2.7,1.5 4.5,1.5 1.8,0 3.8,0.7 4.5,1.5 0.8,0.9 3,1.5 6,1.5 3,0 5.2,0.6 6,1.5 0.8,0.9 3,1.5 6,1.5 3,0 5.2,0.6 6,1.5 0.9,1 3.2,1.5 7.5,1.5 4.3,0 6.6,0.5 7.5,1.5 1,1.2 3.7,1.5 12,1.5 8.3,0 11,0.3 12,1.5 1.9,2.3 79.1,2.3 81,0 0.9,-1.1 3.5,-1.5 10.5,-1.5 7,0 9.6,-0.4 10.5,-1.5 0.9,-1.1 3.3,-1.5 9,-1.5 5.7,0 8.1,-0.4 9,-1.5 0.8,-0.9 3,-1.5 6,-1.5 3,0 5.2,-0.6 6,-1.5 0.8,-0.9 3,-1.5 6,-1.5 3,0 5.2,-0.6 6,-1.5 0.8,-0.9 3,-1.5 6,-1.5 3,0 5.2,-0.6 6,-1.5 0.7,-0.8 2,-1.5 3,-1.5 1,0 2.3,-0.7 3,-1.5 0.7,-0.8 2.7,-1.5 4.5,-1.5 1.8,0 3.8,-0.7 4.5,-1.5 0.7,-0.8 2.7,-1.5 4.5,-1.5 1.8,0 3.8,-0.7 4.5,-1.5 0.7,-0.8 2.7,-1.5 4.5,-1.5 1.8,0 3.8,-0.7 4.5,-1.5 0.7,-0.8 2,-1.5 3,-1.5 1,0 2.3,-0.7 3,-1.5 0.7,-0.8 2.7,-1.5 4.5,-1.5 1.8,0 3.8,-0.7 4.5,-1.5 0.7,-0.8 2,-1.5 3,-1.5 1,0 2.3,-0.7 3,-1.5 0.7,-0.8 2,-1.5 3,-1.5 1,0 2.3,-0.7 3,-1.5 0.7,-0.8 2,-1.5 3,-1.5 1,0 2.3,-0.7 3,-1.5 0.7,-0.8 2,-1.5 3,-1.5 1,0 2.3,-0.7 3,-1.5 0.7,-0.8 2,-1.5 2.9,-1.5 1,0 3,-1.4 4.6,-3 1.6,-1.7 3.4,-2.8 4.1,-2.6 0.6,0.2 2.7,-1.1 4.5,-3 1.8,-1.9 4,-3.4 4.9,-3.4 0.9,0 2.9,-1.4 4.5,-3 1.6,-1.6 3.6,-3 4.5,-3 0.9,0 3.6,-2 6,-4.5 2.4,-2.5 5.1,-4.5 6,-4.5 0.8,0 4.9,-3.4 9,-7.5 4.00001,-4.1 8.20001,-7.5 9.20001,-7.7 2.40003,-0.4 51.79999,-49.7 51.79999,-51.8 0,-0.9 2,-3.6 4.5,-6 2.5,-2.4 4.5,-5.1 4.5,-6 0,-0.9 1.4,-2.9 3,-4.5 1.7,-1.6 3,-3.6 3,-4.5 0,-0.9 1.4,-2.9 3,-4.5 1.7,-1.6 3,-3.6 3,-4.5 0,-0.9 2,-3.6 4.5,-6 2.5,-2.4 4.5,-5.2 4.5,-6.1 0,-0.9 0.7,-2.2 1.5,-2.9 0.8,-0.7 1.5,-2 1.5,-3 0,-1 0.7,-2.3 1.5,-3 0.8,-0.7 1.5,-2 1.5,-2.9 0,-1 1.4,-3 3,-4.6 1.7,-1.6 3,-3.6 3,-4.6 0,-0.9 0.7,-2.2 1.5,-2.9 0.8,-0.7 1.5,-2.7 1.5,-4.5 0,-1.8 0.7,-3.8 1.5,-4.5 0.8,-0.7 1.5,-2 1.5,-3 0,-1 0.7,-2.3 1.5,-3 0.8,-0.7 1.5,-2 1.5,-3 0,-1 0.7,-2.3 1.5,-3 0.8,-0.7 1.5,-2 1.5,-3 0,-1 0.7,-2.3 1.5,-3 0.8,-0.7 1.5,-2.7 1.5,-4.5 0,-1.8 0.7,-3.8 1.5,-4.5 0.8,-0.7 1.5,-2.7 1.5,-4.5 0,-1.8 0.7,-3.8 1.5,-4.5 0.8,-0.7 1.5,-2.7 1.5,-4.5 0,-1.8 0.7,-3.8 1.5,-4.5 0.8,-0.7 1.5,-2.7 1.5,-4.5 0,-1.8 0.7,-3.8 1.5,-4.5 0.9,-0.8 1.5,-3 1.5,-6 0,-3 0.6,-5.2 1.5,-6 0.9,-0.8 1.5,-3 1.5,-6 0,-3 0.6,-5.2 1.5,-6 1,-0.9 1.5,-3.2 1.5,-7.5 0,-4.3 0.5,-6.6 1.5,-7.5 1.1,-0.9 1.5,-3.3 1.5,-9 0,-5.7 0.4,-8.1 1.5,-9 1.2,-1 1.5,-4.2 1.5,-16.5 0,-12.3 0.3,-15.5 1.5,-16.5 1.3,-1.1 1.5,-6.3 1.5,-36 0,-29.7 -0.2,-34.9 -1.5,-36 -1.2,-1 -1.5,-4.2 -1.5,-16.5 0,-12.3 -0.3,-15.5 -1.5,-16.5 -1.1,-0.9 -1.5,-3.3 -1.5,-9 0,-5.7 -0.4,-8.1 -1.5,-9 -1.1,-0.9 -1.5,-3.3 -1.5,-9 0,-5.7 -0.4,-8.1 -1.5,-9 -0.9,-0.8 -1.5,-3 -1.5,-6 0,-3 -0.6,-5.2 -1.5,-6 -0.9,-0.8 -1.5,-3 -1.5,-6 0,-3 -0.6,-5.2 -1.5,-6 -0.9,-0.8 -1.5,-3 -1.5,-6 0,-3 -0.6,-5.2 -1.5,-6 -0.9,-0.8 -1.5,-3 -1.5,-6 0,-3 -0.6,-5.2 -1.5,-6 -0.8,-0.7 -1.5,-2.7 -1.5,-4.5 0,-1.8 -0.7,-3.8 -1.5,-4.5 -0.9,-0.8 -1.5,-3 -1.5,-6 0,-3 -0.6,-5.2 -1.5,-6 -0.8,-0.7 -1.5,-2.7 -1.5,-4.5 0,-1.8 -0.7,-3.8 -1.5,-4.5 -0.8,-0.7 -1.5,-2.7 -1.5,-4.5 0,-1.8 -0.7,-3.8 -1.5,-4.5 -0.8,-0.7 -1.5,-2.7 -1.5,-4.5 0,-1.8 -0.7,-3.8 -1.5,-4.5 -0.8,-0.7 -1.5,-2.7 -1.5,-4.5 0,-1.8 -0.7,-3.8 -1.5,-4.5 -0.9,-0.8 -1.5,-3 -1.5,-6 0,-3 -0.6,-5.2 -1.5,-6 -0.8,-0.7 -1.5,-2 -1.5,-3 0,-1 -0.7,-2.3 -1.5,-3 -0.8,-0.7 -1.5,-2.7 -1.5,-4.5 0,-1.8 -0.7,-3.8 -1.5,-4.5 -0.8,-0.7 -1.5,-2.7 -1.5,-4.5 0,-1.8 -0.7,-3.8 -1.5,-4.5 -0.8,-0.7 -1.5,-2.7 -1.5,-4.5 0,-1.8 -0.7,-3.8 -1.5,-4.5 -0.8,-0.7 -1.5,-2.7 -1.5,-4.5 0,-1.8 -0.7,-3.8 -1.5,-4.5 -0.9,-0.8 -1.5,-3 -1.5,-6 0,-3 -0.6,-5.2 -1.5,-6 -0.8,-0.7 -1.5,-2.7 -1.5,-4.5 0,-1.8 -0.7,-3.8 -1.5,-4.5 -0.8,-0.7 -1.5,-2.7 -1.5,-4.5 0,-1.8 -0.7,-3.8 -1.5,-4.5 -0.8,-0.7 -1.5,-2.7 -1.5,-4.5 0,-1.8 -0.7,-3.8 -1.5,-4.5 -1,-0.9 -1.5,-3.2 -1.5,-7.5 0,-4.3 -0.5,-6.6 -1.5,-7.5 -1,-0.9 -1.5,-3.2 -1.5,-7.5 0,-4.3 -0.5,-6.6 -1.5,-7.5 -1.2,-1 -1.5,-3.8 -1.5,-13.5 0,-9.7 -0.3,-12.5 -1.5,-13.5 -1.2,-1 -1.5,-4.7 -1.5,-21 0,-16.3 0.3,-20 1.5,-21 1,-0.9 1.5,-3.2 1.5,-7.5 0,-4.3 0.5,-6.6 1.5,-7.5 0.9,-0.8 1.5,-3 1.5,-6 0,-3 0.6,-5.2 1.5,-6 2,-1.7 2,-7.9 -0.1,-8.7 -0.8,-0.3 -2,-0.1 -2.7,0.6 -0.6,0.6 -1.8,1.1 -2.7,1.1 -0.9,0 -2.9,1.3 -4.5,3 -1.6,1.6 -3.6,3 -4.6,3 -0.9,0 -2.2,0.7 -2.9,1.5 -0.7,0.8 -2,1.5 -2.9,1.5 -0.9,0 -3.7,2 -6.1,4.5 -2.4,2.5 -5.1,4.5 -6,4.5 -0.9,0 -3.6,2 -6,4.5 -2.4,2.5 -5.1,4.5 -5.9,4.5 -2.1,0 -31.1,29 -31.1,31 0,0.9 -2.7,4.2 -6,7.5 -3.3,3.3 -6,6.6 -6,7.5 0,0.9 -2,3.6 -4.5,6 -2.5,2.4 -4.5,5.2 -4.5,6.1 0,0.9 -0.7,2.2 -1.5,2.9 -0.8,0.7 -1.5,2 -1.5,3 0,1 -0.7,2.3 -1.5,3 -0.8,0.7 -1.5,2 -1.5,3 0,1 -0.7,2.3 -1.5,3 -0.8,0.7 -1.5,2 -1.5,3 0,1 -0.7,2.3 -1.5,3 -0.8,0.7 -1.5,2 -1.5,3 0,1 -0.7,2.3 -1.5,3 -0.8,0.7 -1.5,2 -1.5,3 0,1 -0.7,2.3 -1.5,3 -0.8,0.7 -1.5,2.7 -1.5,4.5 0,1.8 -0.7,3.8 -1.5,4.5 -0.8,0.7 -1.5,2.7 -1.5,4.5 0,1.8 -0.7,3.8 -1.5,4.5 -0.9,0.8 -1.5,3 -1.5,6 0,3 -0.6,5.2 -1.5,6 -0.9,0.8 -1.5,3 -1.5,6 0,3 -0.6,5.2 -1.5,6 -1,0.8 -1.5,3.1 -1.5,7 0,3.1 -0.3,6 -0.6,6.3 -1,0.9 -12.3,-11.5 -12.4,-13.4 0,-0.9 -0.7,-2.2 -1.5,-2.9 -0.8,-0.7 -1.5,-2 -1.5,-3 0,-1 -0.7,-2.3 -1.5,-3 -0.8,-0.7 -1.5,-2.7 -1.5,-4.5 0,-1.8 -0.7,-3.8 -1.5,-4.5 -1,-0.9 -1.5,-3.2 -1.5,-7.5 0,-4.3 -0.5,-6.6 -1.5,-7.5 -1.2,-1 -1.5,-4.3 -1.5,-18 0,-13.7 0.3,-17 1.5,-18 1,-0.9 1.5,-3.2 1.5,-7.5 0,-4.3 0.5,-6.6 1.5,-7.5 0.8,-0.7 1.5,-2.7 1.5,-4.5 0,-1.8 0.7,-3.8 1.5,-4.5 0.8,-0.7 1.5,-2.7 1.5,-4.5 0,-1.8 0.7,-3.8 1.5,-4.5 0.8,-0.7 1.5,-2.7 1.5,-4.5 0,-1.8 0.7,-3.8 1.5,-4.5 0.8,-0.7 1.5,-2.7 1.5,-4.5 0,-1.8 0.7,-3.8 1.5,-4.5 0.8,-0.7 1.5,-2.7 1.5,-4.5 0,-1.8 0.7,-3.8 1.5,-4.5 0.8,-0.7 1.5,-2.7 1.5,-4.5 0,-1.8 0.7,-3.8 1.5,-4.5 0.8,-0.7 1.5,-2.7 1.5,-4.5 0,-1.8 0.7,-3.8 1.5,-4.5 0.8,-0.7 1.5,-2.7 1.5,-4.5 0,-1.8 0.7,-3.8 1.5,-4.5 0.9,-0.8 1.5,-3 1.5,-6 0,-3 0.6,-5.2 1.5,-6 0.9,-0.8 1.5,-3 1.5,-6 0,-3 0.6,-5.2 1.5,-6 0.9,-0.8 1.5,-3 1.5,-6 0,-3 0.6,-5.2 1.5,-6 1.1,-0.9 1.5,-3.3 1.5,-9 0,-5.7 0.4,-8.1 1.5,-9 1.1,-0.9 1.5,-3.5 1.5,-10.5 0,-7 0.4,-9.6 1.5,-10.5 1.3,-1.1 1.5,-6.7 1.5,-39 0,-32.3 -0.2,-37.9 -1.5,-39 -1.2,-1 -1.5,-3.8 -1.5,-13.5 0,-9.7 -0.3,-12.5 -1.5,-13.5 -1,-0.9 -1.5,-3.2 -1.5,-7.5 0,-4.3 -0.5,-6.6 -1.5,-7.5 -1,-0.9 -1.5,-3.2 -1.5,-7.5 0,-4.3 -0.5,-6.6 -1.5,-7.5 -0.8,-0.7 -1.5,-2.7 -1.5,-4.5 0,-1.8 -0.7,-3.8 -1.5,-4.5 -0.9,-0.79996 -1.5,-2.99996 -1.5,-5.99996 0,-2.9999 -0.6,-5.1999 -1.5,-5.9999 -0.8,-0.7 -1.5,-2.7 -1.5,-4.5 0,-1.8 -0.7,-3.8 -1.5,-4.5 -0.8,-0.7 -1.5,-2.7 -1.5,-4.5 0,-1.8 -0.7,-3.8 -1.5,-4.5 -0.8,-0.7 -1.5,-2 -1.5,-3 0,-1.00002 -0.7,-2.30002 -1.5,-3.00002 -0.8,-0.7 -1.5,-2.7 -1.5,-4.5 0,-1.8 -0.7,-3.8 -1.5,-4.5 -0.8,-0.7 -1.5,-2 -1.5,-3 0,-1 -0.7,-2.3 -1.5,-3 -0.8,-0.7 -1.5,-2 -1.5,-3 0,-1 -0.7,-2.3 -1.5,-3 -0.8,-0.7 -1.5,-2 -1.5,-3 0,-1 -0.7,-2.3 -1.5,-3 -0.8,-0.7 -1.5,-2 -1.5,-3 0,-1 -0.7,-2.3 -1.5,-3 -0.8,-0.7 -1.5,-2 -1.5,-2.9 0,-1 -1.3,-3 -3,-4.6 -1.6,-1.6 -3,-3.6 -3,-4.6 0,-0.9 -0.7,-2.2 -1.5,-2.9 -0.8,-0.7 -1.5,-2 -1.5,-2.9 0,-1 -1.3,-3 -3,-4.6 -1.6,-1.6 -3,-3.6 -3,-4.5 0,-0.9 -1.3,-2.9 -3,-4.5 -1.6,-1.6 -3,-3.6 -3,-4.5 0,-0.9 -2,-3.6 -4.5,-6 -2.5,-2.4 -4.5,-5.1 -4.5,-6 0,-0.9 -2.7,-4.2 -6,-7.5 -3.3,-3.3 -6,-6.6 -6,-7.5 0,-2 -47,-49 -49,-49 -0.9,0 -4.2,-2.7 -7.5,-6 -3.3,-3.3 -6.7,-6 -7.5,-6 -0.9,0 -2.9,-1.4 -4.5,-3 -1.6,-1.7 -3.6,-3 -4.5,-3 -0.9,0 -2.9,-1.4 -4.5,-3 -1.6,-1.7 -3.6,-3 -4.5,-3 -0.9,0 -2.9,-1.4 -4.5,-3 -4.1,-4.3 -5.5,-3.9 -5.5,1.4 z m -35,656.09988 c 0.9,1.1 3.5,1.5 10.5,1.5 7,0 9.6,0.4 10.5,1.5 0.8,0.9 3,1.5 6,1.5 3,0 5.2,0.6 6,1.5 0.7,0.8 2.7,1.5 4.5,1.5 1.8,0 3.8,0.7 4.5,1.5 0.7,0.8 2.7,1.5 4.5,1.5 1.8,0 3.8,0.7 4.5,1.5 0.7,0.8 2,1.5 3,1.5 1,0 2.3,0.7 3,1.5 0.7,0.8 2,1.5 3,1.5 1,0 2.3,0.7 3,1.5 0.7,0.8 2,1.5 3,1.5 1,0 2.3,0.7 3,1.5 0.7,0.8 2,1.5 3,1.5 1,0 2.3,0.7 3,1.5 0.7,0.8 2,1.5 2.9,1.5 0.9,0 3.7,2 6.1,4.5 2.4,2.5 5.1,4.5 6,4.5 0.8,0 5.3,3.8 10,8.5 4.7,4.7 8.9,8.5 9.4,8.5 0.5,0 2,-1 3.3,-2.2 1.9,-1.8 2.3,-3.2 2.3,-8.4 0,-4.1 0.5,-6.5 1.4,-7.4 0.8,-0.6 1.6,-2.6 1.8,-4.3 l 0.3,-3.2 h 43.5 43.5 v 198 198 l -46.4,0.3 c -42.1,0.2 -46.6,0.1 -48.3,-1.4 -1.6,-1.5 -1.8,-3.4 -1.8,-15.4 0,-11 -0.3,-14 -1.5,-15 -1,-0.9 -1.5,-3.2 -1.5,-7.7 0,-9.7 -1.3,-9.4 -13.4,2.6 -5.6,5.5 -10.8,10.1 -11.7,10.1 -0.8,0 -3.5,2 -5.9,4.5 -2.4,2.5 -5.2,4.5 -6.1,4.5 -0.9,0 -2.2,0.7 -2.9,1.5 -0.7,0.8 -2,1.5 -2.9,1.5 -1,0 -3,1.3 -4.6,3 -1.6,1.6 -3.6,3 -4.6,3 -0.9,0 -2.2,0.7 -2.9,1.5 -0.7,0.8 -2,1.5 -3,1.5 -1,0 -2.3,0.7 -3,1.5 -0.7,0.8 -2,1.5 -3,1.5 -1,0 -2.3,0.7 -3,1.5 -0.7,0.8 -2,1.5 -3,1.5 -1,0 -2.3,0.7 -3,1.5 -0.7,0.8 -2.7,1.5 -4.5,1.5 -1.8,0 -3.8,0.7 -4.5,1.5 -0.7,0.8 -2,1.5 -3,1.5 -1,0 -2.3,0.7 -3,1.5 -0.8,0.9 -3,1.5 -6,1.5 -3,0 -5.2,0.6 -6,1.5 -0.9,1.1 -3.3,1.5 -9,1.5 -5.7,0 -8.1,0.4 -9,1.5 -1,1.2 -4.8,1.5 -22.5,1.5 -17.7,0 -21.5,-0.3 -22.5,-1.5 -0.9,-1 -3.2,-1.5 -7.5,-1.5 -4.3,0 -6.6,-0.5 -7.5,-1.5 -0.8,-0.9 -3,-1.5 -6,-1.5 -3,0 -5.2,-0.6 -6,-1.5 -0.7,-0.8 -2.7,-1.5 -4.5,-1.5 -1.8,0 -3.8,-0.7 -4.5,-1.5 -0.7,-0.8 -2,-1.5 -3,-1.5 -1,0 -2.3,-0.7 -3,-1.5 -0.7,-0.8 -2,-1.5 -3,-1.5 -1,0 -2.3,-0.7 -3,-1.5 -0.7,-0.8 -2,-1.5 -3,-1.5 -1,0 -2.3,-0.7 -3,-1.5 -0.7,-0.8 -2,-1.5 -3,-1.5 -1,0 -2.3,-0.7 -3,-1.5 -0.7,-0.8 -2,-1.5 -2.9,-1.5 -1,0 -3,-1.4 -4.6,-3 -1.6,-1.7 -3.6,-3 -4.4,-3 -2.1,0 -38.1,-36 -38.1,-38 0,-0.9 -2,-3.6 -4.5,-6 -2.5,-2.4 -4.5,-5.2 -4.5,-6.1 0,-0.9 -0.7,-2.2 -1.5,-2.9 -0.8,-0.7 -1.5,-2 -1.5,-3 0,-1 -0.7,-2.3 -1.5,-3 -0.8,-0.7 -1.5,-2 -1.5,-3 0,-1 -0.7,-2.3 -1.5,-3 -0.8,-0.7 -1.5,-2 -1.5,-3 0,-1 -0.7,-2.3 -1.5,-3 -0.8,-0.7 -1.5,-2 -1.5,-3 0,-1 -0.7,-2.3 -1.5,-3 -0.8,-0.7 -1.5,-2 -1.5,-3 0,-1 -0.7,-2.3 -1.5,-3 -0.8,-0.7 -1.5,-2.7 -1.5,-4.5 0,-1.8 -0.7,-3.8 -1.5,-4.5 -0.8,-0.7 -1.5,-2.7 -1.5,-4.5 0,-1.8 -0.7,-3.8 -1.5,-4.5 -0.9,-0.8 -1.5,-3 -1.5,-6 0,-3 -0.6,-5.2 -1.5,-6 -0.8,-0.7 -1.5,-2.7 -1.5,-4.5 0,-1.8 -0.7,-3.8 -1.5,-4.5 -1.2,-1 -1.5,-3.7 -1.5,-12 0,-8.3 -0.3,-11 -1.5,-12 -1.3,-1 -1.5,-5.3 -1.5,-27 0,-21.7 0.2,-26 1.5,-27 1.1,-0.9 1.5,-3.3 1.5,-9 0,-5.7 0.4,-8.1 1.5,-9 1,-0.9 1.5,-3.2 1.5,-7.5 0,-4.3 0.5,-6.6 1.5,-7.5 0.9,-0.8 1.5,-3 1.5,-6 0,-3 0.6,-5.2 1.5,-6 0.9,-0.8 1.5,-3 1.5,-6 0,-3 0.6,-5.2 1.5,-6 0.8,-0.7 1.5,-2 1.5,-3 0,-1 0.7,-2.3 1.5,-3 0.8,-0.7 1.5,-2.7 1.5,-4.5 0,-1.8 0.7,-3.8 1.5,-4.5 0.8,-0.7 1.5,-2 1.5,-3 0,-1 0.7,-2.3 1.5,-3 0.8,-0.7 1.5,-2.7 1.5,-4.5 0,-1.8 0.7,-3.8 1.5,-4.5 0.8,-0.7 1.5,-2 1.5,-3 0,-1 0.7,-2.3 1.5,-3 0.8,-0.7 1.5,-2 1.5,-3 0,-1 0.7,-2.3 1.5,-3 0.8,-0.7 1.5,-2 1.5,-2.9 0,-1 1.4,-3 3,-4.6 1.7,-1.6 3,-3.6 3,-4.5 0,-0.9 1.4,-2.9 3,-4.5 1.7,-1.6 3,-3.6 3,-4.5 0,-0.9 1.4,-2.9 3,-4.5 1.7,-1.6 3,-3.6 3,-4.5 0,-0.8 3.4,-4.9 7.5,-9 4.1,-4.1 7.5,-8.1 7.5,-8.9 0,-2 9,-11.1 11,-11.1 0.8,0 4.9,-3.4 9,-7.5 4.1,-4.1 8.2,-7.5 9,-7.5 0.9,0 2.9,-1.4 4.5,-3 1.6,-1.7 3.6,-3 4.5,-3 0.9,0 2.9,-1.4 4.5,-3 1.6,-1.7 3.6,-3 4.6,-3 0.9,0 2.2,-0.7 2.9,-1.5 0.7,-0.8 2,-1.5 3,-1.5 1,0 2.3,-0.7 3,-1.5 0.7,-0.8 2,-1.5 3,-1.5 1,0 2.3,-0.7 3,-1.5 0.7,-0.8 2,-1.5 3,-1.5 1,0 2.3,-0.7 3,-1.5 0.7,-0.8 2.7,-1.5 4.5,-1.5 1.8,0 3.8,-0.7 4.5,-1.5 0.7,-0.8 2.7,-1.5 4.5,-1.5 1.8,0 3.8,-0.7 4.5,-1.5 0.8,-0.9 3,-1.5 6,-1.5 3,0 5.2,-0.6 6,-1.5 0.9,-1.1 3.5,-1.5 10.5,-1.5 7,0 9.6,-0.4 10.5,-1.5 1,-1.2 3.7,-1.5 12,-1.5 8.3,0 11,0.3 12,1.5 z"
     id="path1"
     style="fill:#1e8dd9;fill-opacity:1;stroke:none;stroke-width:0.1" />
  <path
     d="m 730.9284,1544.0746 c -1.2,1.2 -3.3,1.6 -7.6,1.5 -4.2,-0.1 -6.3,0.3 -7.2,1.4 -0.7,0.8 -2,1.5 -3,1.5 -1,0 -2.3,0.7 -3,1.5 -0.7,0.8 -2,1.5 -3,1.5 -1,0 -2.3,0.7 -3,1.5 -0.7,0.8 -2,1.5 -3,1.5 -1,0 -2.3,0.7 -3,1.5 -0.7,0.8 -2,1.5 -2.9,1.5 -2.1,0 -31.1,29 -31.1,31.1 0,0.9 -0.7,2.2 -1.5,2.9 -0.8,0.7 -1.5,2 -1.5,3 0,1 -0.7,2.3 -1.5,3 -0.8,0.7 -1.5,2 -1.5,3 0,1 -0.7,2.3 -1.5,3 -0.8,0.7 -1.5,2 -1.5,3 0,1 -0.7,2.3 -1.5,3 -0.8,0.7 -1.5,2.7 -1.5,4.5 0,1.8 -0.7,3.8 -1.5,4.5 -0.8,0.7 -1.5,2.7 -1.5,4.5 0,1.8 -0.7,3.8 -1.5,4.5 -1.2,1 -1.5,3.1 -1.4,8.7 0.1,5.5 -0.3,7.8 -1.5,9.2 -1.4,1.5 -1.6,4.8 -1.6,22.6 0,17.9 0.2,21.1 1.6,22.6 1.2,1.3 1.6,3.5 1.5,7.7 -0.1,4.2 0.3,6.3 1.4,7.2 0.8,0.7 1.5,2.7 1.5,4.5 0,1.8 0.7,3.8 1.5,4.5 0.8,0.7 1.5,2.7 1.5,4.5 0,1.8 0.7,3.8 1.5,4.5 0.8,0.7 1.5,2 1.5,3 0,1 0.7,2.3 1.5,3 0.8,0.7 1.5,2 1.5,3 0,1 0.7,2.3 1.5,3 0.8,0.7 1.5,2 1.5,2.9 0,0.9 2,3.7 4.5,6.1 2.5,2.4 4.5,5.1 4.5,6 0,2 17.1,19 19.1,19 0.8,0 2.8,1.3 4.4,3 1.6,1.6 3.6,3 4.6,3 0.9,0 2.2,0.7 2.9,1.5 0.7,0.8 2,1.5 3,1.5 1,0 2.3,0.7 3,1.5 0.7,0.8 2,1.5 3,1.5 1,0 2.3,0.7 3,1.5 0.7,0.9 2.9,1.4 5.6,1.3 2.8,0 5.1,0.5 6.3,1.6 2.5,2.3 37.2,2.4 39.1,0.1 0.7,-0.8 2.7,-1.5 4.5,-1.5 1.8,0 3.8,-0.7 4.5,-1.5 0.7,-0.8 2.7,-1.5 4.5,-1.5 1.8,0 3.8,-0.7 4.5,-1.5 0.7,-0.8 2,-1.5 3,-1.5 1,0 2.3,-0.7 3,-1.5 0.7,-0.8 2,-1.5 2.9,-1.5 1,0 3,-1.4 4.6,-3 1.6,-1.7 3.6,-3 4.4,-3 2.1,0 19.1,-17 19.1,-19 0,-0.9 1.4,-2.9 3,-4.5 1.7,-1.6 3,-3.6 3,-4.6 0,-0.9 0.7,-2.2 1.5,-2.9 0.8,-0.7 1.5,-2 1.5,-2.9 0,-1 1.4,-3 3,-4.6 2.1,-2 3,-3.8 3,-6.1 0,-1.7 0.7,-3.7 1.5,-4.4 0.8,-0.7 1.5,-2.7 1.5,-4.5 0,-1.8 0.7,-3.8 1.5,-4.5 0.9,-0.7 1.4,-2.9 1.3,-5.6 0,-2.8 0.5,-5.1 1.6,-6.3 1.1,-1.2 1.6,-3.4 1.5,-7.5 -0.1,-4 0.3,-6.2 1.5,-7.5 2.4,-2.6 2.4,-39.6 0,-42.2 -1.2,-1.3 -1.6,-3.5 -1.5,-7.7 0.1,-4.2 -0.3,-6.3 -1.4,-7.2 -0.8,-0.7 -1.5,-2.7 -1.5,-4.5 0,-1.8 -0.7,-3.8 -1.5,-4.5 -0.8,-0.7 -1.5,-2.7 -1.5,-4.5 0,-1.8 -0.7,-3.8 -1.5,-4.5 -0.8,-0.7 -1.5,-2.7 -1.5,-4.5 0,-1.8 -0.7,-3.8 -1.5,-4.5 -0.8,-0.7 -1.5,-2 -1.5,-2.9 0,-1 -1.3,-3 -3,-4.6 -1.6,-1.6 -3,-3.6 -3,-4.5 0,-0.9 -2,-3.6 -4.5,-6 -2.5,-2.4 -4.5,-5.1 -4.5,-6 0,-2 -1.9,-4 -4,-4 -0.8,0 -4.9,-3.4 -9,-7.5 -4.1,-4.1 -8.2,-7.5 -9.1,-7.5 -0.9,0 -2.2,-0.7 -2.9,-1.5 -0.7,-0.8 -2,-1.5 -3,-1.5 -1,0 -2.3,-0.7 -3,-1.5 -0.7,-0.8 -2,-1.5 -3,-1.5 -1,0 -2.3,-0.7 -3,-1.5 -0.7,-0.8 -2.7,-1.5 -4.5,-1.5 -1.8,0 -3.8,-0.7 -4.5,-1.5 -0.7,-0.9 -2.9,-1.4 -5.6,-1.3 -2.8,0 -5.1,-0.5 -6.3,-1.6 -2.6,-2.4 -24.9,-2.4 -27.3,0 z"
     id="path2"
     style="fill:#1e8dd9;fill-opacity:1;stroke:none;stroke-width:0.1" />
  <path
     d="m 1174,1638 v 254 h 45.5 45.5 v -254 -254 h -45.5 -45.5 z"
     id="path3"
     style="fill:#084873;stroke:none;stroke-width:0.1;fill-opacity:1" />
  <path
     d="m 1362.8,1498.7 c -0.1,25.2 -0.2,47.1 -0.3,48.8 -0.1,1.6 -0.2,4.5 -0.3,6.2 -0.1,1.8 -1.1,4.2 -2.2,5.3 -1.9,1.9 -3.3,2 -26.5,2 H 1309 v 36.5 36.5 h 24.3 c 17.6,0 24.6,0.3 25.5,1.2 0.9,0.9 1.2,22.5 1.2,90.7 0.1,77.2 0.3,89.9 1.5,91.5 1,1.3 1.5,4.3 1.5,8.2 0,4.2 0.5,6.5 1.5,7.4 0.8,0.7 1.5,2.7 1.5,4.5 0,1.8 0.7,3.8 1.5,4.5 0.8,0.7 1.5,2 1.5,3 0,1 0.7,2.3 1.5,3 0.8,0.7 1.5,2 1.5,3 0,1 0.7,2.3 1.5,3 0.8,0.7 1.5,2 1.5,2.9 0,1 1.4,3 3,4.6 1.7,1.6 3,3.6 3,4.6 0,1.9 12.4,13.9 14.4,13.9 0.8,0 1.9,0.7 2.6,1.5 0.7,0.8 2,1.5 3,1.5 1,0 2.3,0.7 3,1.5 0.7,0.8 2,1.5 3,1.5 1,0 2.3,0.7 3,1.5 0.7,0.8 2,1.5 3,1.5 1,0 2.3,0.7 3,1.5 0.7,0.8 2.7,1.5 4.5,1.5 1.8,0 3.8,0.7 4.5,1.5 0.8,0.9 3,1.5 5.9,1.5 2.5,0 5.5,0.7 6.5,1.5 2.9,2.2 40.8,2.2 45.9,0 2,-0.8 6,-1.5 8.9,-1.5 3.1,-0.1 6.1,-0.7 7.2,-1.5 1.1,-0.8 3.4,-1.5 5.2,-1.5 1.7,0 3.7,-0.7 4.4,-1.5 0.7,-0.8 2.7,-1.5 4.5,-1.5 1.8,0 3.8,-0.7 4.5,-1.5 0.7,-0.8 2.1,-1.5 3.1,-1.5 1.8,0 1.9,-1.1 1.9,-18.1 0,-12 -0.4,-18.8 -1.2,-20.2 -0.7,-1.3 -1.4,-8.2 -1.6,-16.4 -0.4,-13.4 -0.6,-14.2 -2.3,-13.3 -1,0.6 -2.7,1 -3.9,1 -1.1,0 -3.2,0.7 -4.5,1.6 -2,1.3 -5.2,1.5 -19.1,1.2 -12.3,-0.2 -16.8,-0.6 -17.2,-1.6 -0.2,-0.6 -1.4,-1.2 -2.6,-1.2 -3.1,0 -16.6,-13.8 -16.6,-17 0,-1.4 -0.7,-3.4 -1.5,-4.4 -0.8,-1.1 -1.5,-3.8 -1.5,-6 0,-2.3 -0.7,-5 -1.5,-6 -1.3,-1.7 -1.5,-12.4 -1.5,-75.7 0,-58 0.3,-73.9 1.3,-74.7 0.7,-0.6 8,-1.3 16.2,-1.5 8.3,-0.3 18.2,-1 22,-1.6 3.9,-0.5 14.7,-1 24,-1 l 17,-0.1 v -35 -35 h -39 c -29.1,0 -39.4,-0.3 -40.3,-1.2 -0.9,-0.9 -1.2,-14.3 -1.2,-54 V 1453 h -42.5 -42.5 z"
     id="path4"
     style="fill:#084873;stroke:none;stroke-width:0.1;fill-opacity:1" />
  <path
     d="m 2059,1556.6 c -1.4,0.7 -3.9,1.4 -5.6,1.4 -1.7,0 -3.7,0.7 -4.4,1.5 -0.7,0.8 -2.3,1.5 -3.7,1.5 -2.6,0 -10.6,4.1 -13.9,7.1 -1.1,1 -2.7,1.9 -3.5,1.9 -1.4,0 -26.9,24.9 -26.9,26.3 0,0.4 -1.1,2.5 -2.5,4.7 -1.4,2.2 -2.5,5 -2.5,6.4 0,2.6 -2.4,5.1 -4,4.1 -0.6,-0.4 -1,-5 -1,-11.4 0,-7.4 -0.5,-12 -1.5,-14.4 -1,-2.5 -1.5,-7.1 -1.5,-14 v -10.4 l -39.5,0.1 -39.5,0.1 v 165.2 165.3 h 42.3 42.2 l 0.3,-88.8 c 0.3,-74.5 0.6,-89.1 1.8,-90.9 0.9,-1.4 1.4,-4.9 1.4,-9.1 0,-4.4 0.5,-7.5 1.5,-8.8 0.8,-1 1.5,-3 1.5,-4.4 0,-1.4 0.7,-3.4 1.5,-4.4 0.8,-1.1 1.5,-3.2 1.5,-4.7 0,-1.4 0.7,-3.2 1.5,-3.9 0.8,-0.7 1.5,-1.9 1.5,-2.7 0,-0.8 2,-3.8 4.5,-6.5 2.5,-2.8 4.5,-5.6 4.5,-6.3 0,-1.5 7.8,-8.5 9.5,-8.5 0.6,0 2.6,-1.6 4.5,-3.5 1.9,-1.9 4.2,-3.5 5.1,-3.5 0.9,0 3,-0.7 4.5,-1.5 1.6,-0.8 4,-1.5 5.4,-1.5 1.4,0 3.4,-0.7 4.4,-1.5 2.9,-2.2 33.8,-2.1 38,0 1.5,0.8 5,1.5 7.7,1.5 h 4.9 v -44 -44 l -18.7,0.1 c -14,0.1 -19.4,0.4 -21.3,1.5 z"
     id="path5"
     style="fill:#084873;stroke:none;stroke-width:0.1;fill-opacity:1" />
  <path
     d="m 2295.6,1556.5 c -1.1,0.8 -4.1,1.5 -6.7,1.5 -2.9,0 -5.1,0.6 -5.9,1.5 -0.7,0.8 -2.7,1.5 -4.5,1.5 -1.8,0 -3.8,0.7 -4.5,1.5 -0.7,0.8 -2.4,1.5 -3.9,1.5 -1.4,0 -4.3,1.1 -6.3,2.5 -2,1.4 -4.1,2.5 -4.6,2.5 -0.5,0 -1.7,0.9 -2.7,2 -1,1.1 -2.5,2 -3.3,2 -1.9,0 -26.2,23.9 -26.2,25.8 0,0.7 -1.2,2.9 -2.6,4.8 -4,5.1 -5.4,3.2 -5.4,-7 0,-5.2 -0.5,-8.7 -1.2,-9.4 -0.8,-0.8 -1.5,-5.8 -1.8,-13.5 l -0.5,-12.2 -7,0.2 c -20.7,0.7 -45.6,0.6 -57.7,-0.1 l -13.8,-0.9 v 167.2 167.1 h 42.5 42.5 v -99.3 c 0,-86 0.2,-99.6 1.5,-102.1 0.8,-1.5 1.5,-4.9 1.5,-7.5 0,-2.5 0.7,-5.9 1.5,-7.5 0.8,-1.5 1.5,-3.4 1.5,-4.2 0,-1.6 3.9,-9.2 5.1,-10 0.5,-0.3 0.9,-1.3 0.9,-2.3 0,-0.9 1.6,-3.2 3.5,-5.1 1.9,-1.9 3.5,-3.9 3.5,-4.6 0,-0.7 2.1,-3 4.8,-5 2.6,-2.1 6.1,-5.1 7.8,-6.6 3.1,-2.9 10,-6.8 12,-6.8 0.6,0 1.7,-0.7 2.4,-1.5 0.7,-0.8 2.4,-1.5 3.9,-1.5 1.4,0 3.5,-0.7 4.5,-1.5 2.9,-2.2 34.2,-2.1 37,0 1.1,0.8 3.2,1.5 4.7,1.5 1.4,0 3.2,0.7 3.9,1.5 0.7,0.8 2,1.5 2.9,1.5 0.9,0.1 3.2,1.4 5.1,3 1.9,1.7 4,3 4.6,3 1.5,0 8.4,7.9 8.4,9.5 0,0.7 0.9,2 2,3 1.1,1 2,2.6 2,3.5 0,1 0.7,2.3 1.5,3 0.8,0.7 1.5,2 1.5,3 0,1 0.7,2.3 1.5,3 0.9,0.8 1.5,3 1.5,6 0,2.6 0.7,6.1 1.5,7.6 1.3,2.5 1.5,16.9 1.5,109.6 0,58.8 0.4,106.8 0.8,106.8 0.5,0 1.1,-0.3 1.5,-0.6 0.6,-0.6 58.3,-0.5 70,0.1 l 6.7,0.4 v -119.7 c -0.1,-103.7 -0.3,-120 -1.5,-121.6 -1,-1.3 -1.5,-4.3 -1.5,-8.2 0,-3.5 -0.6,-7.4 -1.5,-9 -0.8,-1.6 -1.5,-4.3 -1.5,-6 0,-1.7 -0.7,-3.7 -1.5,-4.4 -0.8,-0.7 -1.5,-2.1 -1.5,-3.1 0,-1.1 -0.4,-2.7 -1,-3.7 -0.5,-0.9 -1.6,-3.3 -2.5,-5.2 -1.9,-4.6 -4.9,-9.7 -6.9,-11.9 -0.9,-1 -1.6,-2.3 -1.6,-3 0,-1.9 -24.1,-26.1 -26,-26.1 -0.9,0 -2.5,-0.9 -3.5,-2 -1,-1.1 -2.3,-2 -2.8,-2 -0.6,0 -2.4,-1.1 -4.1,-2.4 -1.7,-1.3 -4.6,-2.7 -6.3,-3 -1.8,-0.4 -3.5,-1.2 -3.8,-1.7 -0.4,-0.5 -2.3,-0.9 -4.4,-0.9 -2.1,0 -4.4,-0.6 -5,-1.4 -0.6,-0.7 -4,-1.6 -7.7,-1.9 -3.6,-0.2 -7.1,-1 -7.7,-1.6 -0.7,-0.7 -8.3,-1.1 -23.1,-1.1 -17.9,0.1 -22.5,0.3 -24,1.5 z"
     id="path6"
     style="fill:#084873;stroke:none;stroke-width:0.1;fill-opacity:1" />
  <path
     d="m 2618,1556.6 c -1.9,0.7 -6.9,1.3 -11.1,1.3 -5.5,0.1 -8,0.5 -8.9,1.6 -0.8,0.9 -3,1.5 -6,1.5 -3,0 -5.2,0.6 -6,1.5 -0.7,0.8 -2.7,1.5 -4.5,1.5 -1.8,0 -3.8,0.7 -4.5,1.5 -0.7,0.8 -2.7,1.5 -4.5,1.5 -1.8,0 -3.8,0.7 -4.5,1.5 -0.7,0.8 -2,1.5 -3,1.5 -1,0 -2.3,0.7 -3,1.5 -0.7,0.8 -2,1.5 -3,1.5 -1,0 -2.3,0.7 -3,1.5 -0.7,0.8 -1.9,1.5 -2.7,1.5 -0.8,0 -2.9,1.1 -4.7,2.5 -1.8,1.4 -3.6,2.5 -4,2.5 -0.5,0 -3.1,2 -5.8,4.5 -2.8,2.5 -5.5,4.5 -6.2,4.5 -1.7,0 -14.6,13.3 -14.6,15.1 0,0.8 -2,3.5 -4.5,5.9 -2.5,2.4 -4.5,5.1 -4.5,6 -0.1,0.8 -1.4,3.1 -3,5 -1.7,1.9 -3,3.9 -3,4.6 0,0.6 -0.7,1.7 -1.5,2.4 -3.4,2.8 -0.7,10.9 3.6,11 0.8,0.1 3,1.4 4.9,3 1.9,1.7 3.9,3 4.5,3 0.5,0.1 2.6,1.4 4.5,3 1.9,1.7 3.9,3 4.6,3 0.6,0 1.9,0.9 2.9,2 1,1.1 2.3,2 2.8,2 0.6,0 2.5,1.1 4.3,2.5 1.8,1.4 3.9,2.5 4.6,2.5 0.7,0.1 2.9,1.4 4.8,3 1.9,1.7 3.9,3 4.4,3 0.5,0 1.8,0.7 2.8,1.7 1.7,1.5 1.8,1.5 1.8,-0.4 0,-1.1 0.9,-2.8 2,-3.8 1.1,-1 2,-2.4 2,-3.2 0,-0.8 1.3,-2.8 2.9,-4.5 1.7,-1.8 3.5,-4.3 4.2,-5.7 1.9,-3.9 15.1,-17.1 17.1,-17.1 0.9,0 1.9,-0.4 2.2,-0.9 0.8,-1.2 8.4,-5.1 10,-5.1 0.7,0 1.9,-0.7 2.6,-1.5 0.7,-0.8 2.6,-1.5 4.3,-1.5 1.7,0 3.8,-0.7 4.7,-1.5 2.6,-2.4 38.4,-2.5 43,-0.1 1.8,0.9 4.1,1.6 5,1.6 1,0 2.3,0.7 3,1.5 0.7,0.8 2,1.5 3,1.5 1,0 2.3,0.7 3,1.5 0.7,0.8 2,1.5 2.9,1.5 2.1,0 10.1,8 10.1,10.1 0,0.8 1.4,2.8 3,4.4 1.7,1.6 3,3.6 3,4.6 0,0.9 0.7,2.2 1.5,2.9 0.8,0.7 1.5,2 1.5,3 0,1 0.7,3.1 1.5,4.6 0.8,1.6 1.5,4.3 1.5,6 0,1.7 0.7,3.7 1.5,4.4 1.9,1.6 2.1,16 0.3,17.8 -0.7,0.7 -4.2,1.2 -8.8,1.2 -4.7,0 -8.1,0.5 -8.8,1.2 -0.9,0.9 -5.7,1.4 -14.5,1.7 -9.1,0.2 -13.8,0.7 -15.2,1.7 -1.4,1 -5.1,1.4 -12.5,1.4 -6.8,0 -11,0.4 -11.8,1.2 -0.6,0.6 -5.1,1.4 -9.9,1.6 -5.1,0.3 -9.6,1 -10.8,1.8 -1.1,0.8 -4.5,1.4 -8,1.4 -3.4,0 -6.6,0.5 -7.1,1 -0.6,0.6 -3.4,1.3 -6.2,1.7 -2.9,0.3 -5.7,1.2 -6.3,1.9 -0.6,0.8 -2.6,1.4 -4.4,1.4 -1.8,0 -3.8,0.7 -4.5,1.5 -0.7,0.8 -2.7,1.5 -4.5,1.5 -1.8,0 -3.8,0.7 -4.5,1.5 -0.7,0.8 -2.7,1.5 -4.5,1.5 -1.8,0 -3.8,0.7 -4.5,1.5 -0.7,0.8 -2,1.5 -3,1.5 -1,0 -2.3,0.7 -3,1.5 -0.7,0.8 -2,1.5 -3,1.5 -1,0 -2.3,0.7 -3,1.5 -0.7,0.8 -1.8,1.5 -2.5,1.5 -0.7,0 -3.5,1.8 -6.1,4 -2.7,2.2 -5.4,4 -6,4 -1.6,0 -14.4,13.7 -14.4,15.3 0,0.7 -1.3,2.6 -3,4.2 -1.6,1.6 -3,3.6 -3,4.5 0,0.9 -0.9,2.5 -2,3.5 -1.1,1 -2,2.6 -2,3.7 0,1 -0.4,1.8 -1,1.8 -0.5,0 -1,1.1 -1,2.4 0,1.3 -0.7,2.9 -1.5,3.6 -0.8,0.7 -1.5,2.7 -1.5,4.5 0,1.8 -0.6,3.8 -1.4,4.4 -0.7,0.6 -1.6,4 -1.9,7.8 -0.3,3.7 -1,6.9 -1.6,7.1 -1.4,0.5 -1.5,19.6 0,22.3 0.5,1.1 1.3,5.1 1.6,8.9 0.3,4 1.2,7.5 1.9,8.1 0.8,0.6 1.4,2.6 1.4,4.4 0,1.8 0.7,3.8 1.5,4.5 0.8,0.7 1.5,2 1.5,3 0,1 0.7,2.3 1.5,3 0.8,0.7 1.5,2 1.5,3 0,1 0.7,2.3 1.5,3 0.8,0.7 1.5,1.9 1.5,2.7 0,1.9 18.2,20.5 21.7,22.3 1.6,0.8 3.7,2.2 4.8,3.1 3.2,2.8 11.6,6.9 14,6.9 1.3,0 2.8,0.6 3.4,1.4 0.7,0.8 3,1.7 5.2,2.1 2.1,0.4 3.9,1.1 3.9,1.6 0,0.5 3.1,0.9 6.8,0.9 4.4,0 7.5,0.5 8.8,1.5 2.8,2.1 48.7,2.1 52.4,0 1.4,-0.8 4.3,-1.4 6.6,-1.5 2.2,0 4.9,-0.7 6,-1.5 1,-0.8 3.3,-1.5 5,-1.5 1.7,0 3.7,-0.7 4.4,-1.5 0.7,-0.8 2.2,-1.5 3.4,-1.5 1.9,0 8.3,-3 21.9,-10.3 1.6,-0.8 4.1,-2.6 5.7,-4.1 1.7,-1.4 3.4,-2.6 3.9,-2.6 0.5,0 4.1,-3 8,-6.6 4.8,-4.5 7.5,-6.4 8.2,-5.7 2.1,2.1 3.9,12.2 3.9,22 v 10.3 h 38 38 v -117.3 c 0,-82.9 -0.3,-117.6 -1.1,-118.4 -0.6,-0.6 -1.3,-3.9 -1.6,-7.4 -0.3,-3.5 -1.1,-7.8 -1.9,-9.6 -0.8,-1.7 -1.4,-4.4 -1.4,-6.1 0,-1.6 -0.7,-3.5 -1.5,-4.2 -0.8,-0.7 -1.5,-2.1 -1.5,-3.1 0,-1.1 -0.4,-2.7 -0.9,-3.7 -0.6,-0.9 -2.4,-4.7 -4.2,-8.4 -1.7,-3.7 -4,-7.5 -5,-8.4 -1,-0.9 -1.9,-2.3 -1.9,-3.1 0,-1.9 -18,-20.3 -19.9,-20.3 -0.8,0 -3.1,-1.5 -5.1,-3.4 -4,-3.9 -18.3,-11.6 -21.6,-11.6 -1.2,0 -2.7,-0.7 -3.4,-1.5 -0.7,-0.8 -2.7,-1.5 -4.5,-1.5 -1.8,0 -3.8,-0.6 -4.4,-1.4 -0.6,-0.7 -3.5,-1.6 -6.4,-1.9 -2.8,-0.4 -5.3,-1.1 -5.5,-1.7 -0.2,-0.5 -3.2,-1 -6.6,-1 -3.5,0 -8.5,-0.7 -11.2,-1.5 -6.4,-1.9 -35.2,-1.9 -40.4,0.1 z m 69.8,186.6 c 0.6,0.7 1.3,4.7 1.5,8.8 0.3,4.1 0.9,9.4 1.2,11.6 0.4,2.6 0.3,4.4 -0.4,4.8 -0.6,0.4 -1.1,3.3 -1.1,6.4 0,3.1 -0.7,7 -1.5,8.6 -0.8,1.5 -1.5,3.6 -1.5,4.6 0,1 -0.7,2.3 -1.5,3 -0.8,0.7 -1.5,2 -1.5,2.9 -0.1,0.9 -1.4,3.2 -3,5.1 -1.7,1.9 -3,3.9 -3,4.6 0,1.6 -13.7,14.4 -15.4,14.4 -0.7,0 -2.1,0.9 -3.1,2 -1,1.1 -2.6,2 -3.6,2 -1,0 -2,0.4 -2.3,0.9 -0.8,1.2 -8.4,5.1 -10,5.1 -0.7,0 -1.9,0.7 -2.6,1.5 -0.7,0.8 -2.7,1.5 -4.5,1.5 -1.8,0 -4.6,0.7 -6.1,1.5 -1.6,0.8 -4.7,1.5 -6.9,1.5 -2.3,0 -4.6,0.5 -5.2,1.1 -0.7,0.7 -5.5,1.4 -10.7,1.7 -7.7,0.4 -10,0.2 -12,-1.2 -1.4,-0.9 -3.6,-1.6 -4.8,-1.6 -1.3,-0.1 -3.9,-1.4 -5.8,-3 -1.9,-1.7 -3.9,-3 -4.4,-3 -1.7,0 -6.6,-5.3 -6.6,-7.1 0,-1 -0.4,-2 -0.9,-2.3 -1.4,-0.9 -5.1,-9 -5.1,-11.2 0,-1 -0.7,-2.8 -1.5,-3.8 -1.1,-1.4 -1.5,-4.6 -1.5,-10.7 0,-8.1 0.3,-9.2 3.7,-15.9 3.6,-6.9 11.9,-16 14.8,-16 0.6,0 2,-0.9 3,-2 1,-1.1 2.6,-2 3.5,-2 1,0 2.3,-0.7 3,-1.5 0.7,-0.8 2.7,-1.5 4.5,-1.5 1.8,0 3.8,-0.7 4.5,-1.5 0.7,-0.8 2.7,-1.5 4.5,-1.5 1.8,0 3.8,-0.7 4.5,-1.5 0.9,-1.1 3.3,-1.5 9,-1.5 4.9,0 8.8,-0.5 10.6,-1.5 2.1,-1.1 6.3,-1.5 15.4,-1.5 8.9,-0.1 13.2,-0.5 15,-1.5 3.3,-1.9 26.3,-2.1 27.8,-0.3 z"
     id="path7"
     style="fill:#084873;stroke:none;stroke-width:0.1;fill-opacity:1" />
  <path
     d="m 1684,1559.6 c -1.4,0.7 -4.6,1.4 -7.1,1.4 -2.9,0 -5.1,0.6 -5.9,1.5 -0.7,0.8 -2.7,1.5 -4.5,1.5 -1.8,0 -3.8,0.7 -4.5,1.5 -0.7,0.8 -2.7,1.5 -4.5,1.5 -1.8,0 -3.8,0.7 -4.5,1.5 -0.7,0.8 -2,1.5 -3,1.5 -1,0 -2.3,0.7 -3,1.5 -0.7,0.8 -2,1.5 -3,1.5 -1,0 -2.3,0.7 -3,1.5 -0.7,0.8 -2,1.5 -3,1.5 -1,0 -2.3,0.7 -3,1.5 -0.7,0.8 -1.9,1.5 -2.7,1.5 -0.8,0 -2.9,1.1 -4.7,2.5 -1.8,1.4 -3.7,2.5 -4.3,2.5 -0.5,0 -2,1.2 -3.4,2.6 -1.3,1.4 -5.1,4.5 -8.4,6.9 -6.8,4.8 -23.5,21.7 -23.5,23.8 0,0.7 -1.6,2.8 -3.5,4.7 -1.9,1.9 -3.5,3.8 -3.5,4.4 0,0.5 -1.1,2.4 -2.5,4.2 -1.4,1.8 -2.5,3.9 -2.5,4.7 0,0.8 -0.7,2 -1.5,2.7 -0.8,0.7 -1.5,2 -1.5,3 0,1 -0.7,2.3 -1.5,3 -0.8,0.7 -1.5,2 -1.5,3 0,1 -0.7,2.3 -1.5,3 -0.8,0.7 -1.5,2 -1.5,3 0,1 -0.7,2.3 -1.5,3 -0.8,0.7 -1.5,2.7 -1.5,4.5 0,1.8 -0.7,3.8 -1.5,4.5 -0.8,0.7 -1.5,2.7 -1.5,4.5 0,1.8 -0.7,3.8 -1.5,4.5 -0.9,0.8 -1.5,3 -1.5,6 0,3 -0.6,5.2 -1.5,6 -1,0.9 -1.5,3.2 -1.5,7.4 0,3.5 -0.7,7.3 -1.5,9 -2.2,4.1 -2.2,52.3 0,55.2 1,1.3 1.4,4.4 1.5,9.5 0,4.8 0.6,8.7 1.5,10.5 0.8,1.6 1.5,4.7 1.5,6.9 0,2.2 0.7,4.9 1.5,5.9 0.8,1.1 1.5,3 1.5,4.2 0,2 1.4,5.4 4.2,10.4 0.4,0.8 1.1,2.2 1.4,3 0.3,0.8 1,2.2 1.5,3 0.5,0.8 1.2,2.2 1.5,3 0.3,0.8 1,2.2 1.5,3 0.5,0.8 1.2,2.2 1.5,3 0.3,0.8 1,2.2 1.5,3 0.5,0.8 1.5,2.8 2.2,4.5 0.8,1.6 2.4,3.9 3.6,4.9 1.1,1.1 2.1,2.6 2.1,3.4 0,2 30,32.2 32,32.2 0.9,0 2.9,1.3 4.5,3 1.6,1.6 3.6,3 4.5,3 0.9,0 2.5,0.9 3.4,1.9 0.9,1 4.7,3.3 8.4,5 3.7,1.8 7.5,3.6 8.4,4.2 1,0.5 2.6,0.9 3.7,0.9 1,0 2.4,0.7 3.1,1.5 0.7,0.8 2.7,1.5 4.5,1.5 1.8,0 3.8,0.7 4.5,1.5 0.7,0.8 2.7,1.5 4.5,1.5 1.8,0 3.8,0.7 4.5,1.5 0.9,1 3.1,1.5 7.3,1.5 4.1,0 6.6,0.5 7.8,1.6 1.5,1.3 6.2,1.5 34.9,1.6 25,0 33.4,-0.3 34,-1.2 0.4,-0.7 3.7,-1.4 7.4,-1.7 3.7,-0.3 7.1,-1.2 7.7,-1.9 0.6,-0.8 3,-1.4 5.3,-1.4 2.2,0 5,-0.7 6,-1.5 1.1,-0.8 2.8,-1.5 3.8,-1.5 1,0 2.6,-0.4 3.6,-0.9 5.5,-2.9 10.4,-5.1 11.6,-5.1 0.7,0 1.9,-0.7 2.6,-1.5 0.7,-0.8 2,-1.5 2.9,-1.5 1,0 3,-1.4 4.6,-3 1.6,-1.7 3.6,-3 4.5,-3 0.9,0 2.9,-1.4 4.5,-3 1.6,-1.7 3.4,-3 4.2,-3 0.7,0 4.1,-2.7 7.6,-6 3.6,-3.3 6.9,-6 7.4,-6 1.1,0 14.1,-13.4 17.6,-18.2 l 2.7,-3.7 -3.7,-3 c -2.1,-1.7 -4.2,-3.1 -4.8,-3.1 -0.5,-0.1 -2.6,-1.4 -4.5,-3 -1.9,-1.7 -3.9,-3 -4.5,-3 -0.6,0 -2.4,-1.4 -4,-3 -1.6,-1.7 -3.6,-3 -4.5,-3 -0.9,0 -2.9,-1.4 -4.5,-3 -1.6,-1.7 -3.6,-3 -4.5,-3 -0.9,0 -3.1,-1.6 -5,-3.5 -1.9,-1.9 -3.9,-3.5 -4.4,-3.5 -0.6,0 -3.3,-1.8 -6.1,-4 -2.7,-2.2 -5.5,-4 -6,-4 -0.6,0 -6.4,5.4 -13,12 -6.6,6.6 -12.7,12 -13.6,12 -0.9,0 -2.2,0.7 -2.9,1.5 -0.7,0.8 -2,1.5 -3,1.5 -1,0 -2.3,0.7 -3,1.5 -0.7,0.8 -2,1.5 -3,1.5 -1,0 -2.3,0.7 -3,1.5 -0.7,0.9 -3,1.5 -5.4,1.5 -2.2,0 -5,0.7 -6,1.5 -2.8,2.1 -42.8,2.2 -46.8,0.1 -1.4,-0.8 -4.5,-1.7 -6.7,-2.1 -2.3,-0.4 -4.1,-1.1 -4.1,-1.6 0,-0.5 -1.1,-0.9 -2.3,-0.9 -1.3,0 -3.2,-0.9 -4.2,-2 -1,-1.1 -2.3,-2 -2.9,-2 -0.6,0 -2.7,-1.2 -4.6,-2.8 -1.9,-1.5 -4.8,-3.4 -6.3,-4.2 -3.4,-1.7 -15.7,-14.5 -15.7,-16.3 0,-0.7 -1.6,-2.8 -3.5,-4.7 -1.9,-1.9 -3.5,-4.1 -3.5,-5.1 0,-0.9 -0.7,-2.2 -1.5,-2.9 -0.8,-0.7 -1.5,-2 -1.5,-3 0,-1 -0.7,-2.3 -1.5,-3 -0.8,-0.7 -1.5,-2.5 -1.5,-3.9 0,-1.5 -0.7,-3.6 -1.5,-4.7 -0.8,-1 -1.5,-3.3 -1.5,-5 0,-1.8 -0.7,-4.5 -1.5,-6 -1.8,-3.5 -2,-11.5 -0.3,-13.2 0.9,-0.9 28.1,-1.2 116.4,-1.2 h 115.3 l 0.7,-5.7 c 0.7,-6.1 0,-23.2 -1.2,-27.3 -0.4,-1.4 -0.9,-7.7 -1.1,-14 -0.3,-6.3 -0.9,-11.7 -1.4,-12.1 -0.6,-0.3 -1.3,-3.2 -1.6,-6.5 -0.3,-3.2 -1.2,-6.8 -1.9,-7.9 -0.8,-1.1 -1.4,-3.4 -1.4,-5.1 0,-1.7 -0.7,-3.7 -1.5,-4.4 -0.8,-0.7 -1.5,-2.7 -1.5,-4.5 0,-1.8 -0.7,-3.8 -1.5,-4.5 -0.8,-0.7 -1.5,-2 -1.5,-3 0,-1 -0.7,-2.3 -1.5,-3 -0.8,-0.7 -1.5,-2 -1.5,-3 0,-2.2 -2.6,-7.4 -4.5,-9 -0.8,-0.7 -1.5,-2 -1.5,-3 0,-1 -0.7,-2.3 -1.5,-3 -0.8,-0.7 -1.5,-2 -1.5,-2.9 0,-1 -1.3,-3 -3,-4.6 -1.6,-1.6 -3,-3.6 -3,-4.5 0,-2 -33.2,-35 -35.2,-35 -0.8,0 -2.7,-1.4 -4.3,-3 -1.6,-1.7 -3.6,-3 -4.6,-3 -0.9,0 -2.2,-0.7 -2.9,-1.5 -0.7,-0.8 -2,-1.5 -3,-1.5 -1,0 -2.3,-0.7 -3,-1.5 -0.7,-0.8 -2,-1.5 -3,-1.5 -1,0 -2.3,-0.7 -3,-1.5 -0.7,-0.8 -2,-1.5 -2.9,-1.5 -0.9,0 -2.9,-0.7 -4.5,-1.5 -1.5,-0.8 -3.6,-1.5 -4.5,-1.5 -0.9,0 -2.9,-0.7 -4.5,-1.5 -1.5,-0.8 -4.9,-1.5 -7.5,-1.5 -2.5,0 -5.5,-0.7 -6.5,-1.5 -2.8,-2.1 -57.8,-2 -61.6,0.1 z m 45.2,62 c 3.9,0.3 7.2,1.2 7.9,2 0.6,0.8 1.8,1.4 2.5,1.4 0.8,0 4.2,1.4 7.6,3.2 9.1,4.6 24.8,20.1 29.3,29.1 1.9,3.8 3.5,7.4 3.5,8.2 0,0.7 0.7,1.8 1.5,2.5 0.9,0.7 1.5,3 1.5,5.4 0,2.2 0.7,5 1.5,6 0.8,1.1 1.5,3.4 1.5,5 0,6.5 4.8,6.1 -70.3,6.2 -37.6,0.1 -69.7,0.5 -71.4,0.8 -2.8,0.6 -3.1,0.5 -3.7,-2.5 -1,-5 -0.7,-7.6 0.9,-8.9 0.8,-0.7 1.5,-2.7 1.5,-4.5 0,-1.8 0.7,-3.8 1.5,-4.5 0.8,-0.7 1.5,-1.9 1.5,-2.6 0,-1.6 3.9,-9.2 5.1,-10 0.5,-0.3 0.9,-1.3 0.9,-2.2 0,-2.2 23,-25.2 25.1,-25.2 0.9,0 2.2,-0.7 2.9,-1.5 0.7,-0.8 2,-1.5 3,-1.5 1,0 2.3,-0.7 3,-1.5 0.7,-0.8 2,-1.5 3,-1.5 1,0 2.3,-0.7 3,-1.5 0.8,-1 3.1,-1.5 6.6,-1.5 2.9,0 5.6,-0.5 6,-1.1 0.6,-1.1 6.1,-0.9 24.6,0.7 z"
     id="path8"
     style="fill:#084873;stroke:none;stroke-width:0.1;fill-opacity:1" />
  <path
     d="m 1111.1,1745.6 c 0,1.1 0.3,1.4 0.6,0.6 0.3,-0.7 0.2,-1.6 -0.1,-1.9 -0.3,-0.4 -0.6,0.2 -0.5,1.3 z"
     id="path9"
     style="fill:#000000;stroke:none;stroke-width:0.1" />
  <path
     d="m 1111.2,1774 c 0,1.9 0.2,2.7 0.5,1.7 0.2,-0.9 0.2,-2.5 0,-3.5 -0.3,-0.9 -0.5,-0.1 -0.5,1.8 z"
     id="path10"
     style="fill:#000000;stroke:none;stroke-width:0.1" />
  <path
     d="m 1111.1,1779.6 c 0,1.1 0.3,1.4 0.6,0.6 0.3,-0.7 0.2,-1.6 -0.1,-1.9 -0.3,-0.4 -0.6,0.2 -0.5,1.3 z"
     id="path11"
     style="fill:#000000;stroke:none;stroke-width:0.1" />
  <path
     d="m 1015.8,1993.5 c -0.3,0.3 0.1,4.3 0.8,8.8 2,12.2 2,93 0,94.6 -1.1,0.9 -1.8,0.6 -3.5,-1.8 -1.2,-1.6 -2.1,-3.3 -2.1,-3.9 0,-1.4 -13.8,-14.2 -15.4,-14.2 -0.7,0 -1.9,-0.7 -2.6,-1.5 -0.7,-0.8 -2,-1.5 -3,-1.5 -1,0 -2.3,-0.7 -3,-1.5 -0.8,-0.9 -3,-1.5 -6,-1.5 -3,0 -5.2,-0.6 -6,-1.5 -1.7,-2.1 -25.3,-2.1 -29,0 -1.4,0.8 -3.9,1.4 -5.6,1.5 -1.7,0 -3.7,0.7 -4.4,1.5 -0.7,0.8 -2,1.5 -3,1.5 -2.2,0 -7.4,2.6 -9,4.5 -0.7,0.8 -1.9,1.5 -2.7,1.5 -3.6,0 -23.3,19.4 -23.3,23 0,0.6 -1.3,2.8 -2.9,4.8 -1.7,2 -3.3,4.9 -3.6,6.5 -0.4,1.5 -1.1,3 -1.6,3.3 -0.5,0.3 -0.9,1.5 -0.9,2.8 0,1.2 -0.7,3.1 -1.5,4.2 -0.8,1 -1.5,3.7 -1.5,6 0,2.2 -0.7,4.9 -1.5,6 -1.1,1.5 -1.4,5.5 -1.4,18.9 0,13.4 0.3,17.4 1.4,18.9 0.8,1.1 1.5,3.4 1.5,5.2 0,1.7 0.7,3.7 1.5,4.4 0.8,0.7 1.5,2.7 1.5,4.5 0,1.8 0.7,3.8 1.5,4.5 0.8,0.7 1.5,2.3 1.5,3.6 0,1.4 1.1,4.2 2.5,6.4 1.4,2.2 2.5,4.3 2.5,4.8 0,0.5 0.9,1.7 2,2.7 1.1,1 2,2.4 2,3.1 0,2 12,14.4 13.9,14.4 1,0 3,1.3 4.6,3 1.6,1.6 3.6,3 4.6,3 0.9,0 2.2,0.7 2.9,1.5 0.7,0.8 2,1.5 2.9,1.5 0.9,0 2.9,0.7 4.5,1.5 1.5,0.8 4.2,1.5 6,1.5 1.7,0 4.4,0.7 6,1.5 4,2.1 25.3,2.1 28,0 1.1,-0.8 4.1,-1.5 6.7,-1.5 2.9,0 5.1,-0.6 5.9,-1.5 0.7,-0.8 2,-1.5 3,-1.5 1,0 2.3,-0.7 3,-1.5 0.7,-0.8 2,-1.5 3,-1.5 0.9,0 5.6,-4.1 10.5,-9.1 5.4,-5.6 9.2,-8.8 10.1,-8.5 1.1,0.4 1.4,3.1 1.4,12.1 v 11.5 h 17 17 V 2116.5 1993 h -17.8 c -9.8,0 -18.1,0.2 -18.4,0.5 z M 979.5,2102 c 3.8,0.5 7.1,1.4 7.3,2 0.2,0.5 1.3,1 2.5,1 2.6,0 19.7,16.6 19.7,19.1 0,0.9 0.7,2.2 1.5,2.9 0.8,0.7 1.5,2.3 1.5,3.7 0,1.3 0.7,3.5 1.6,4.8 1.3,2 1.5,5.3 1.2,20.6 -0.2,13.5 -0.6,18.3 -1.5,18.7 -0.7,0.2 -1.3,1.2 -1.3,2.2 0,4.2 -7.1,15.8 -13.4,21.8 -3.5,3.4 -7,6.2 -7.8,6.2 -0.8,0 -2.3,0.9 -3.3,2 -1.2,1.3 -3.1,2 -5.7,2 -2.1,0 -5,0.7 -6.4,1.6 -1.9,1.3 -3.9,1.5 -8.5,1.1 -3.4,-0.3 -6.6,-1 -7.2,-1.6 -0.6,-0.6 -2.5,-1.1 -4.3,-1.1 -1.7,0 -3.7,-0.7 -4.4,-1.5 -0.7,-0.8 -2,-1.5 -3,-1.5 -0.9,0 -2.5,-0.9 -3.5,-2 -1,-1.1 -2.4,-2 -3.2,-2 -1.8,0 -11.3,-9.5 -11.3,-11.3 0,-0.8 -0.9,-2.2 -2,-3.2 -1.1,-1 -2,-2.6 -2,-3.5 0,-1 -0.7,-2.3 -1.5,-3 -0.9,-0.7 -1.5,-2.9 -1.5,-5 0,-2.2 -0.5,-4 -1.2,-4.2 -1,-0.4 -1.4,-4.7 -1.6,-15.9 -0.3,-13.2 -0.1,-15.7 1.2,-16.8 0.9,-0.8 1.6,-2 1.6,-2.8 0,-8.4 20.8,-31.3 28.4,-31.3 0.7,0 1.9,-0.7 2.6,-1.5 0.7,-0.9 2.9,-1.5 5.4,-1.5 2.2,0 4.8,-0.5 5.6,-1 0.8,-0.6 2.9,-0.8 4.5,-0.6 1.7,0.3 6.1,1 10,1.6 z"
     id="path12"
     style="fill:#084873;stroke:none;stroke-width:0.1;fill-opacity:1" />
  <path
     d="m 2146,2043.3 c 0,34.1 -0.3,50.8 -1,51.2 -1.4,0.9 -4,-1.3 -4,-3.4 0,-1.7 -9.8,-12.1 -11.4,-12.1 -0.5,0 -2.4,-1.1 -4.2,-2.5 -1.8,-1.4 -3.9,-2.5 -4.7,-2.5 -0.8,0 -2,-0.7 -2.7,-1.5 -0.7,-0.8 -2.7,-1.5 -4.4,-1.5 -1.7,0 -4.4,-0.7 -6,-1.5 -3.9,-2.1 -27,-2.1 -30.6,0 -1.4,0.8 -4,1.4 -5.8,1.5 -1.8,0 -4,0.4 -5,0.9 -0.9,0.5 -3.6,1.9 -5.9,3 -2.3,1.1 -5.2,2.6 -6.5,3.3 -3.9,2.2 -24.8,23.2 -24.8,24.9 0,0.9 -0.7,2.2 -1.5,2.9 -0.8,0.7 -1.5,2 -1.5,3 0,1 -0.7,2.3 -1.5,3 -0.8,0.7 -1.5,2 -1.5,3 0,1 -0.7,2.3 -1.5,3 -0.8,0.7 -1.5,2 -1.5,2.9 0,1 -0.7,2.6 -1.5,3.7 -0.8,1 -1.5,3.7 -1.5,6 0,2.2 -0.7,4.9 -1.5,6 -2.1,2.8 -2.2,38.9 0,43 0.8,1.6 1.5,4.3 1.5,6 0,1.7 0.7,3.7 1.5,4.4 0.8,0.7 1.5,2.2 1.5,3.5 0,2 1.3,4.7 6.8,15 1.9,3.4 18.2,20.5 19.6,20.5 0.5,0 2.4,1.1 4.2,2.5 1.8,1.4 3.9,2.5 4.7,2.5 0.8,0 2,0.7 2.7,1.5 0.7,0.8 2,1.5 2.9,1.5 0.9,0 2.9,0.7 4.5,1.5 1.6,0.8 5.4,1.5 8.8,1.5 3.3,0 6.8,0.5 7.9,1 3.7,2.1 14.4,2.4 18.8,0.6 2.3,-0.9 6.1,-1.6 8.5,-1.6 2.7,0 4.8,-0.6 5.6,-1.5 0.7,-0.8 2.4,-1.5 3.9,-1.5 1.5,0 4.2,-1.3 6.1,-3 1.9,-1.6 4,-2.9 4.7,-3 1.5,0 12.3,-9.9 12.3,-11.2 0,-0.5 0.9,-2.3 2.1,-3.9 1.7,-2.4 2.4,-2.7 3.5,-1.8 1.1,0.9 1.4,4.1 1.4,13 v 11.9 l 4.3,-0.1 c 2.3,0 8.5,-0.4 13.7,-0.8 5.2,-0.4 10.3,-0.4 11.2,0.1 1,0.5 1.9,0.4 2.3,-0.2 0.7,-1.1 1.2,-42.3 2.1,-157.2 0.6,-82.3 0.6,-84.6 -1.3,-85.6 -1,-0.6 -9.4,-1.4 -18.6,-1.8 l -16.7,-0.7 z m -36.5,58.6 c 2.8,0.4 6.4,1.5 8,2.4 1.7,0.9 3.5,1.7 4.2,1.7 0.7,0 4.1,2.7 7.7,6 6,5.7 13.6,17.6 13.6,21.5 0,0.7 0.7,1.8 1.5,2.5 2.2,1.8 2.2,33.7 0,36.6 -0.8,1 -1.5,3.1 -1.5,4.5 0,1.5 -0.7,3.2 -1.5,3.9 -0.8,0.7 -1.5,2 -1.5,2.9 -0.1,0.9 -1.4,3.2 -3,5.1 -1.7,1.9 -3,4 -3,4.6 0,1.5 -7.9,8.4 -9.5,8.4 -0.7,0 -2,0.9 -3,2 -1,1.1 -2.6,2 -3.5,2 -1,0 -2.3,0.7 -3,1.5 -0.7,0.9 -2.9,1.5 -5.2,1.5 -2.2,0 -6.2,0.8 -8.8,1.7 -4.5,1.6 -4.9,1.6 -7.3,0 -1.5,-0.9 -4.4,-1.7 -6.5,-1.7 -2.3,0 -4.5,-0.6 -5.2,-1.5 -0.7,-0.8 -2,-1.5 -3,-1.5 -0.9,0 -2.5,-0.9 -3.5,-2 -1,-1.1 -2.4,-2 -3.1,-2 -2,0 -12.4,-10 -12.4,-12 0,-1.1 -0.4,-2.1 -0.9,-2.5 -1,-0.5 -3.7,-6 -6.2,-12.5 -0.8,-2.2 -1.5,-9.1 -1.7,-19.1 -0.2,-13.1 0,-15.8 1.3,-16.9 0.8,-0.7 1.5,-2.7 1.5,-4.5 0,-1.8 0.7,-3.8 1.5,-4.5 0.8,-0.7 1.5,-2 1.5,-2.9 0,-0.8 4.6,-6.2 10.2,-11.8 7.7,-7.8 10.9,-10.3 12.8,-10.3 1.5,0 3.5,-0.7 4.6,-1.5 1,-0.8 4,-1.5 6.6,-1.5 2.6,0 5,-0.5 5.4,-1.1 0.4,-0.7 2.1,-0.8 4.3,-0.5 2,0.4 5.9,1 8.6,1.5 z"
     id="path13"
     style="fill:#084873;stroke:none;stroke-width:0.1;fill-opacity:1" />
  <path
     d="m 2229,2003.6 c -4,3.7 -5,5.3 -5,7.9 0,1.8 -0.7,3.8 -1.5,4.5 -0.9,0.8 -1.5,3 -1.5,6 0,3 0.6,5.2 1.5,6 0.8,0.7 1.5,2.1 1.5,3.1 0,1 0.5,2.1 1.1,2.4 0.5,0.4 1.4,1.8 1.9,3.1 0.5,1.3 1.6,2.4 2.4,2.4 0.7,0 1.9,0.7 2.6,1.5 2.5,3 7.3,4.5 13.9,4.4 9.9,-0.1 17.5,-4.8 20.7,-12.9 0.3,-0.8 1.2,-2.7 2,-4.2 1.8,-3.3 1.7,-7.6 -0.1,-10.8 -0.8,-1.4 -1.4,-3.8 -1.5,-5.3 0,-2 -1.4,-4.2 -5,-7.7 l -4.9,-5 h -11.6 -11.6 z"
     id="path14"
     style="fill:#000000;stroke:none;stroke-width:0.1" />
  <path
     d="m 1711.1,2047.2 c -0.1,15.7 -0.6,24.6 -1.3,25.5 -0.7,0.9 -4.5,1.3 -13.4,1.3 H 1684 v 14 14 h 11.9 c 12.6,0 17.7,1 16.8,3.4 -1,2.6 -1.4,92.5 -0.4,93.5 0.5,0.5 1.1,4 1.4,7.8 0.3,3.8 1.4,8.8 2.6,11.3 2.4,5.3 15.3,19 17.7,19 1,0 2.3,0.7 3,1.5 0.8,1 3.1,1.5 7.2,1.5 3.2,0 7.5,0.7 9.5,1.5 4.5,1.9 10.2,1.9 12.7,0 1.3,-1 4.4,-1.5 9.1,-1.5 4.7,0 7.8,-0.5 9.1,-1.5 1,-0.8 3.4,-1.5 5.2,-1.5 h 3.2 v -5.8 c -0.1,-3.4 -0.6,-6.5 -1.5,-7.6 -1,-1.3 -1.5,-4.3 -1.5,-8.3 v -6.3 h -4.8 c -2.6,0 -5.2,0.4 -5.8,1 -2,2 -10.2,2.4 -12.8,0.6 -1.4,-0.9 -3.6,-1.6 -5,-1.6 -1.5,0 -3.6,-1.3 -5.6,-3.6 -3.6,-4.1 -5,-7.3 -5,-11.3 0,-1.6 -0.7,-3.4 -1.5,-4.1 -1.3,-1.1 -1.5,-7.2 -1.5,-43.4 0,-31.5 0.3,-42.5 1.2,-43.4 0.9,-0.9 6.9,-1.2 21,-1.2 h 19.7 l 1.6,-3 c 1,-1.9 1.5,-5.7 1.5,-10.7 0,-5 0.6,-8.8 1.5,-10.7 0.8,-1.5 1.5,-3 1.5,-3.2 0,-0.2 -10.3,-0.4 -22.8,-0.4 -16.4,0 -23.1,-0.3 -24,-1.2 -0.9,-0.9 -1.2,-7.9 -1.2,-25.5 V 2023 h -18.4 -18.4 z"
     id="path15"
     style="fill:#084873;stroke:none;stroke-width:0.1;fill-opacity:1" />
  <path
     d="m 1152,2069.5 c -0.7,0.9 -3,1.5 -5.4,1.5 -2.2,0 -5,0.7 -6,1.5 -1.1,0.8 -2.7,1.5 -3.7,1.5 -0.9,0 -2.2,0.7 -2.9,1.5 -0.7,0.8 -2,1.5 -3,1.5 -1,0 -2.3,0.7 -3,1.5 -0.7,0.8 -2,1.5 -2.9,1.5 -2.1,0 -23.1,21 -23.1,23.1 0,0.9 -0.7,2.2 -1.5,2.9 -0.8,0.7 -1.5,2 -1.5,3 0,1 -0.7,2.3 -1.5,3 -0.8,0.7 -1.5,2 -1.5,3 0,1 -0.7,2.3 -1.5,3 -0.8,0.7 -1.5,2.7 -1.5,4.5 0,1.8 -0.7,3.8 -1.5,4.5 -0.9,0.8 -1.5,3 -1.5,5.9 0,2.6 -0.7,5.6 -1.5,6.7 -2.1,2.8 -2.1,32 0,34.8 0.8,1.1 1.5,4.1 1.5,6.7 0,2.6 0.7,6 1.5,7.5 0.8,1.6 1.5,3.6 1.5,4.5 0,0.9 0.7,2.2 1.5,2.9 0.8,0.7 1.5,2 1.5,3 0,1 0.7,2.3 1.5,3 0.8,0.7 1.5,1.9 1.5,2.7 0,0.8 1.1,2.9 2.5,4.7 1.4,1.8 2.5,3.7 2.5,4.2 0,1.2 11.2,12.4 12.5,12.4 0.5,0 3.3,1.8 6,4 2.9,2.3 6.1,4 7.6,4 1.5,0 3.2,0.7 3.9,1.5 0.7,0.8 2,1.5 2.9,1.5 0.9,0 2.5,0.7 3.5,1.5 1.1,0.8 3.8,1.5 6.1,1.5 2.3,0 5,0.7 6.1,1.5 2.7,2.1 33.7,2.1 37.4,0 1.4,-0.8 3.9,-1.4 5.6,-1.5 1.8,0 4.5,-0.7 6,-1.5 1.6,-0.8 3.6,-1.5 4.5,-1.5 0.9,0 2.2,-0.7 2.9,-1.5 0.7,-0.8 1.9,-1.5 2.7,-1.5 0.8,0 2.9,-1.1 4.7,-2.5 1.8,-1.4 3.7,-2.5 4.2,-2.5 0.5,0 5.3,-4.4 10.7,-9.8 l 9.7,-9.8 -3.3,-3.2 c -1.8,-1.8 -3.9,-3.2 -4.7,-3.2 -0.8,-0.1 -3.1,-1.4 -5,-3 -1.9,-1.7 -3.9,-3 -4.6,-3 -0.6,0 -1.7,-0.7 -2.4,-1.5 -1,-1.2 -6.6,-4.5 -7.7,-4.5 -0.1,0 -0.3,0.8 -0.3,1.7 0,2.2 -10.9,13.3 -13.1,13.3 -0.9,0 -2.2,0.7 -2.9,1.5 -0.7,0.8 -2,1.5 -3,1.5 -1,0 -2.3,0.6 -2.9,1.4 -0.7,0.9 -3.9,1.6 -7.9,2 -3.7,0.2 -8.7,0.8 -11,1.2 -2.8,0.4 -4.8,0.2 -5.5,-0.5 -0.6,-0.6 -3.2,-1.1 -5.8,-1.1 -2.9,0 -5.1,-0.6 -5.9,-1.5 -0.7,-0.8 -2,-1.5 -3,-1.5 -1,0 -2.3,-0.7 -3,-1.5 -0.7,-0.8 -2,-1.5 -3,-1.5 -2,0 -15,-13.3 -15,-15.4 0,-0.7 -0.9,-2.1 -2,-3.1 -1.1,-1 -2,-3 -2,-4.4 0,-1.4 -0.7,-3.5 -1.5,-4.5 -1.7,-2.2 -2,-7.3 -0.6,-9.5 0.7,-1.1 10.5,-1.3 60,-1.2 l 59.1,0.2 v -16.9 c 0,-13.1 -0.3,-17.6 -1.5,-19.8 -0.8,-1.6 -1.5,-4.7 -1.5,-6.9 0,-2.2 -0.7,-4.9 -1.5,-5.9 -0.8,-1.1 -1.5,-2.7 -1.5,-3.7 0,-0.9 -0.7,-2.2 -1.5,-2.9 -0.8,-0.7 -1.5,-2 -1.5,-3 0,-1 -0.7,-2.3 -1.5,-3 -0.8,-0.7 -1.5,-1.9 -1.5,-2.7 0,-0.8 -1.1,-2.9 -2.5,-4.7 -1.4,-1.8 -2.5,-3.7 -2.5,-4.3 0,-1.3 -11.6,-12.3 -13,-12.3 -0.6,0 -2.3,-1.1 -3.8,-2.5 -1.5,-1.4 -3.4,-2.5 -4.3,-2.5 -0.9,0 -2.2,-0.7 -2.9,-1.5 -0.7,-0.8 -2,-1.5 -3,-1.5 -1,0 -2.3,-0.7 -3,-1.5 -0.8,-0.9 -3,-1.5 -5.9,-1.5 -2.6,0 -5.6,-0.7 -6.7,-1.5 -2.8,-2.1 -30.6,-2.2 -32.4,0 z m 27,28 c 0.7,0.8 2.7,1.5 4.4,1.5 2.3,0 4.1,0.9 6.6,3.5 1.9,1.9 3.9,3.5 4.4,3.5 1.4,0 9.6,10.6 9.6,12.4 0,0.7 0.7,1.9 1.5,2.6 0.9,0.7 1.5,2.9 1.5,5.5 0,2.3 0.7,5.7 1.6,7.4 2.1,4.3 0.7,7.7 -3.3,8.2 -1.5,0.2 -19.2,0.1 -39.3,-0.2 -24,-0.5 -36.9,-0.3 -37.7,0.3 -3.5,2.8 -5.8,-5.6 -2.8,-9.6 0.8,-1.1 1.5,-3.2 1.5,-4.7 0,-1.4 0.7,-3.2 1.5,-3.9 0.8,-0.7 1.5,-1.9 1.5,-2.7 0,-2.1 7.4,-10.9 12.7,-15.2 2.6,-2.1 5.4,-4.5 6.2,-5.4 0.7,-1 2.8,-1.7 4.6,-1.7 1.8,0 3.8,-0.7 4.5,-1.5 0.9,-1.1 3.5,-1.5 10.5,-1.5 7,0 9.6,0.4 10.5,1.5 z"
     id="path16"
     style="fill:#084873;stroke:none;stroke-width:0.1;fill-opacity:1" />
  <path
     d="m 1582,2069.6 c -1.4,0.7 -5.3,1.4 -8.6,1.4 -4.2,0 -6.5,0.5 -7.4,1.5 -0.7,0.8 -2.7,1.5 -4.5,1.5 -1.8,0 -3.8,0.7 -4.5,1.5 -0.7,0.8 -2,1.5 -3,1.5 -1,0 -2.3,0.7 -3,1.5 -0.7,0.8 -1.9,1.5 -2.7,1.5 -2.1,0 -14.3,12 -14.3,14 0,1 -0.7,2.3 -1.5,3 -0.8,0.7 -1.5,2 -1.5,2.9 0,1 -0.7,2.6 -1.5,3.7 -1.1,1.4 -1.4,5 -1.4,14.4 0,9.4 0.3,13 1.4,14.4 0.8,1.1 1.5,2.7 1.5,3.7 0,0.9 0.7,2.2 1.5,2.9 0.8,0.7 1.5,2 1.5,2.9 0,2.2 10.1,12.1 12.3,12.1 0.9,0 1.7,0.4 1.7,0.8 0,1 7.1,4.2 9.2,4.2 0.9,0 2.1,0.7 2.8,1.5 0.7,0.8 2.7,1.5 4.5,1.5 1.8,0 3.8,0.6 4.4,1.4 0.6,0.7 3.4,1.6 6.3,1.9 2.8,0.4 5.6,1.1 6.2,1.7 0.5,0.5 3.8,1 7.2,1 4.2,0 6.5,0.5 7.4,1.5 0.8,0.9 3,1.5 6,1.5 2.8,0 5.2,0.6 5.9,1.4 0.7,0.8 2.6,1.7 4.4,2 3.3,0.6 11.5,6.6 13.8,10.1 0.8,1.2 1.2,4.6 1.1,9 -0.2,6.7 -0.3,7.1 -4.4,11.2 -2.3,2.4 -5,4.3 -5.9,4.3 -0.9,0 -2.2,0.7 -2.9,1.5 -0.7,0.8 -2,1.5 -3,1.5 -1,0 -3.1,0.7 -4.6,1.5 -4,2.1 -20.3,2.1 -23,0 -1,-0.8 -3,-1.5 -4.4,-1.5 -1.8,0 -5,-2.4 -11.3,-8.8 -4.8,-4.8 -8.7,-9.4 -8.7,-10.3 0,-0.9 -0.9,-2.4 -2,-3.4 -2,-1.8 -2.2,-1.8 -4.9,-0.2 -1.6,0.9 -4,1.7 -5.3,1.7 -1.2,0 -3.2,0.7 -4.2,1.5 -1.1,0.8 -2.7,1.5 -3.7,1.5 -0.9,0 -3,0.7 -4.5,1.5 -1.6,0.8 -3.6,1.5 -4.4,1.5 -0.8,0 -2.5,0.9 -3.8,2 -1.8,1.4 -2.1,2.5 -1.6,4.7 0.9,4.1 3.1,8.8 4.9,10.3 0.8,0.7 1.5,2 1.5,2.9 0,2.1 12,14.1 14.2,14.1 0.8,0 2.1,0.7 2.8,1.5 0.7,0.8 2,1.5 3,1.5 1,0 2.3,0.7 3,1.5 0.7,0.8 2.7,1.5 4.5,1.5 1.8,0 3.8,0.7 4.5,1.5 0.8,0.9 3,1.5 6,1.5 3,0 5.2,0.6 6,1.5 1.8,2.2 35.6,2.1 38.4,0 1.1,-0.8 3.4,-1.5 5.2,-1.5 1.7,0 4.5,-0.7 6,-1.5 1.6,-0.8 3.6,-1.5 4.5,-1.5 0.9,0 2.2,-0.7 2.9,-1.5 0.7,-0.8 2.1,-1.5 3.1,-1.5 1.1,0 2.9,-0.6 4.2,-1.2 3.8,-2.2 15.7,-14.2 15.7,-15.9 0,-0.9 0.7,-2.2 1.5,-2.9 2.1,-1.8 4.2,-6.3 5,-11 0.4,-2.2 1.1,-4 1.6,-4 1.6,0 1,-18.3 -0.6,-20.4 -0.8,-1.1 -1.5,-3.4 -1.5,-5.2 0,-1.7 -0.7,-3.7 -1.5,-4.4 -0.8,-0.7 -1.5,-1.8 -1.5,-2.5 0,-1.9 -9,-11.5 -10.8,-11.5 -0.9,0 -2.5,-0.9 -3.6,-1.9 -3,-2.8 -11.5,-7.1 -14,-7.1 -1.2,0 -3.2,-0.6 -4.7,-1.3 -1.4,-0.8 -5,-1.7 -7.9,-2 -3,-0.4 -5.6,-1.1 -5.8,-1.7 -0.2,-0.5 -2.7,-1 -5.5,-1 -2.9,0 -6.5,-0.7 -8.1,-1.5 -1.5,-0.8 -4.9,-1.5 -7.5,-1.5 -2.6,0 -5.6,-0.7 -6.7,-1.5 -1,-0.8 -3,-1.5 -4.2,-1.5 -5.1,0 -14.2,-6.9 -14.2,-10.7 0,-1.3 -0.4,-2.3 -0.9,-2.3 -1.8,0 -2.2,-5.2 -0.6,-7.6 0.8,-1.3 1.5,-3.2 1.5,-4.3 0,-2 7.4,-9.1 9.4,-9.1 0.6,0 2.8,-0.9 4.9,-2 4.7,-2.5 20.1,-2.9 23.3,-0.5 1,0.8 3,1.5 4.4,1.5 2.9,0 14,10.5 14,13.2 0,0.8 0.7,2.1 1.5,2.8 0.8,0.7 1.5,2.2 1.5,3.3 0,1.9 0.1,1.9 1.8,0.4 1.1,-1 3.5,-1.7 5.8,-1.7 2.2,0 4.9,-0.7 6,-1.5 1,-0.8 3,-1.5 4.4,-1.5 1.4,0 3.4,-0.7 4.4,-1.5 1.1,-0.8 3.5,-1.5 5.3,-1.5 3.3,0 3.3,0 3.3,-4.9 0,-3.1 -0.5,-5.3 -1.5,-6.1 -0.8,-0.7 -1.5,-2 -1.5,-2.9 0,-1 -1.3,-3 -3,-4.6 -1.6,-1.6 -3,-3.5 -3,-4.2 0,-0.8 -0.8,-1.7 -1.7,-2 -1,-0.4 -4,-2.6 -6.7,-5 -2.6,-2.4 -5.4,-4.3 -6.1,-4.3 -0.7,0 -1.8,-0.7 -2.5,-1.5 -0.7,-0.8 -2.7,-1.5 -4.5,-1.5 -1.8,0 -3.8,-0.7 -4.5,-1.5 -0.9,-1 -3.2,-1.5 -7.4,-1.5 -3.4,-0.1 -7.2,-0.7 -8.6,-1.5 -3.3,-1.9 -18.5,-1.8 -22,0.1 z"
     id="path17"
     style="fill:#084873;stroke:none;stroke-width:0.1;fill-opacity:1" />
  <path
     d="m 2374.5,2069.5 c -1.6,0.8 -5.1,1.4 -7.6,1.5 -2.6,0 -6,0.7 -7.5,1.5 -1.6,0.8 -3.6,1.5 -4.5,1.5 -1.7,0 -10.1,3.7 -15.9,7 -4.8,2.7 -25,23 -25,25 0,0.9 -0.8,2.4 -1.8,3.4 -2.7,2.4 -6.9,11.4 -7.7,16.3 -0.4,2.4 -1.1,4.3 -1.6,4.3 -0.5,0 -0.9,2.5 -0.9,5.5 0,3 -0.7,9.5 -1.5,14.5 -1.2,6.8 -1.3,9.5 -0.5,11.1 0.7,1.1 1.4,5.5 1.7,9.7 0.3,4.3 1.2,8.6 1.9,9.7 0.8,1.1 1.4,3.4 1.4,5.1 0,1.7 0.7,3.7 1.5,4.4 0.8,0.7 1.5,2 1.5,3 0,2.2 2.6,7.4 4.5,9 0.8,0.7 1.5,2 1.5,2.9 0,1.8 20.9,22.7 25,25.1 7.2,4.1 13.6,7 15.5,7 1.2,0 3,0.7 4.1,1.5 1.1,0.8 4.2,1.4 7.5,1.5 3.8,0 6.1,0.5 6.9,1.5 1,1.2 3.8,1.5 13.5,1.5 9.7,0 12.5,-0.3 13.5,-1.5 0.9,-1 3.2,-1.5 7.5,-1.5 4.3,0 6.6,-0.5 7.5,-1.5 0.7,-0.8 2,-1.5 3,-1.5 1,0 3.1,-0.7 4.6,-1.5 1.6,-0.8 3.6,-1.5 4.5,-1.5 0.9,0 2.2,-0.7 2.9,-1.5 0.7,-0.8 2,-1.5 2.9,-1.5 1,0 3,-1.4 4.6,-3 1.6,-1.7 3.5,-3 4.2,-3 1.8,0 14.6,-12.3 16.3,-15.7 0.8,-1.5 2.2,-3.7 3.1,-4.8 2.8,-3.2 6.9,-11.6 6.9,-14 0,-1.3 0.7,-2.8 1.5,-3.5 0.8,-0.7 1.5,-2.7 1.5,-4.4 0,-1.8 0.7,-4.1 1.5,-5.2 2.1,-2.8 2.1,-38 0,-40.8 -0.8,-1.1 -1.5,-3.4 -1.5,-5.2 0,-1.7 -0.7,-3.7 -1.5,-4.4 -0.8,-0.7 -1.5,-2.7 -1.5,-4.5 0,-1.8 -0.7,-3.8 -1.5,-4.5 -0.8,-0.7 -1.5,-2 -1.5,-3 0,-1 -0.7,-2.3 -1.5,-3 -0.8,-0.7 -1.5,-1.9 -1.5,-2.7 0,-0.7 -2,-3.6 -4.5,-6.2 -2.5,-2.6 -4.5,-5.2 -4.5,-5.8 0,-1.4 -7,-9.3 -8.2,-9.3 -0.6,0 -2.9,-1.4 -5.2,-3 -6.5,-4.8 -11.6,-8 -12.9,-8 -0.7,0 -2.1,-0.7 -3.1,-1.5 -1.1,-0.8 -3.2,-1.5 -4.7,-1.5 -1.4,0 -3.2,-0.7 -3.9,-1.5 -0.9,-1 -3.2,-1.5 -7.5,-1.5 -4.3,0 -6.6,-0.5 -7.5,-1.5 -1.7,-2 -21.1,-2 -25.5,0 z m 23.1,31 c 1,0.8 3.1,1.5 4.5,1.5 1.5,0 3.2,0.7 3.9,1.5 0.7,0.8 2,1.5 3,1.5 0.9,0 2.5,0.9 3.5,2 1,1.1 2.5,2 3.2,2 2.1,0 12.3,10 12.3,12 0,1 0.7,2.3 1.5,3 0.8,0.7 1.5,2 1.5,3 0,1 0.7,2.3 1.5,3 0.8,0.7 1.5,2.3 1.5,3.7 0,1.3 0.7,3.5 1.6,4.8 2.3,3.6 2.3,33.8 0,36.4 -0.9,1 -1.6,2.5 -1.6,3.3 0,0.9 -0.7,2.1 -1.5,2.8 -0.8,0.7 -1.5,2 -1.5,3 0,1 -0.7,2.3 -1.5,3 -0.8,0.7 -1.5,2 -1.5,3 0,2 -10.4,12 -12.4,12 -0.7,0 -2.1,0.9 -3.1,2 -1,1.1 -2.6,2 -3.5,2 -1,0 -2.3,0.7 -3,1.5 -0.7,0.9 -3,1.5 -5.4,1.5 -2.2,0 -5,0.7 -6,1.5 -1.3,1 -4.3,1.5 -8.1,1.5 -3.8,0 -6.8,-0.5 -8.1,-1.5 -1,-0.8 -2.9,-1.5 -4.2,-1.5 -4.8,0 -13.7,-5.4 -21.4,-12.8 -4.3,-4.2 -7.8,-8.3 -7.8,-9.3 0,-0.9 -0.7,-2.2 -1.5,-2.9 -0.8,-0.7 -1.5,-2 -1.5,-3 0,-1 -0.7,-2.3 -1.5,-3 -0.8,-0.7 -1.5,-2.4 -1.5,-3.9 0,-1.4 -0.7,-3.5 -1.5,-4.5 -1.1,-1.5 -1.5,-5 -1.5,-14.1 0,-9.1 0.4,-12.6 1.5,-14.1 0.8,-1 1.5,-3 1.5,-4.4 0,-2.4 0.6,-3.9 4.6,-11.2 2.6,-4.6 18.5,-20.8 20.5,-20.8 0.9,0 2.2,-0.7 2.9,-1.5 0.7,-0.8 2.4,-1.5 3.9,-1.5 1.4,0 3.5,-0.7 4.5,-1.5 1.4,-1.1 4.6,-1.5 11.1,-1.5 6.5,0 9.7,0.4 11.1,1.5 z"
     id="path18"
     style="fill:#084873;stroke:none;stroke-width:0.1;fill-opacity:1" />
  <path
     d="m 1260,2073.9 c 0,1.6 0.6,3.6 1.4,4.4 0.8,0.8 1.8,3 2.1,5 0.4,2 1.3,4.1 2.1,4.8 0.8,0.6 1.4,1.9 1.4,2.9 0,1 0.7,2.3 1.5,3 0.8,0.7 1.5,2.7 1.5,4.5 0,1.8 0.7,3.8 1.5,4.5 0.8,0.7 1.5,2 1.5,3 0,1 0.7,3.1 1.5,4.6 0.8,1.6 1.5,3.6 1.5,4.5 0,0.9 0.7,2.2 1.5,2.9 0.8,0.7 1.5,2 1.5,3 0,1 0.7,2.3 1.5,3 0.8,0.7 1.5,2.7 1.5,4.5 0,1.8 0.7,3.8 1.5,4.5 0.8,0.7 1.5,2.4 1.5,3.9 0,1.4 0.7,3.5 1.5,4.5 0.8,1.1 1.5,2.7 1.5,3.7 0,0.9 0.7,2.2 1.5,2.9 0.8,0.7 1.5,2.7 1.5,4.5 0,1.8 0.7,3.8 1.5,4.5 0.8,0.7 1.5,2 1.5,3 0,1 0.7,3.1 1.5,4.6 0.8,1.6 1.5,3.6 1.5,4.5 0,0.9 0.7,2.2 1.5,2.9 0.8,0.7 1.5,2.4 1.5,3.9 0,1.4 0.7,3.5 1.5,4.5 0.8,1.1 1.5,2.7 1.5,3.7 0,0.9 0.7,3 1.5,4.5 0.8,1.6 1.5,3.6 1.5,4.5 0,0.9 0.7,2.2 1.5,2.9 0.8,0.7 1.5,2.7 1.5,4.5 0,1.8 0.7,3.8 1.5,4.5 0.8,0.7 1.5,2.7 1.5,4.5 0,1.8 0.7,3.8 1.5,4.5 0.8,0.7 1.5,2 1.5,3 0,1 0.7,2.3 1.5,3 0.8,0.7 1.5,2.7 1.5,4.5 0,1.8 0.7,3.8 1.5,4.5 0.8,0.7 1.5,2.7 1.5,4.5 0,4.7 2.9,6.3 10.4,5.4 6.8,-0.8 27.8,-0.5 29.2,0.4 0.6,0.3 1.4,0.3 1.9,-0.1 1.7,-1.2 4.5,-7.3 4.5,-9.7 0,-1.2 0.7,-2.8 1.5,-3.5 0.8,-0.7 1.5,-2 1.5,-2.9 0,-1 0.7,-2.6 1.5,-3.7 0.8,-1 1.5,-3.1 1.5,-4.5 0,-1.5 0.7,-3.2 1.5,-3.9 0.8,-0.7 1.5,-2 1.5,-2.9 0,-0.9 0.7,-2.9 1.5,-4.5 0.8,-1.5 1.5,-3.6 1.5,-4.5 0,-1 0.7,-2.6 1.5,-3.7 0.8,-1 1.5,-3.1 1.5,-4.5 0,-1.5 0.7,-3.2 1.5,-3.9 0.8,-0.7 1.5,-2 1.5,-2.9 0,-0.9 0.7,-2.9 1.5,-4.5 0.8,-1.5 1.5,-3.6 1.5,-4.6 0,-1 0.7,-2.3 1.5,-3 0.8,-0.7 1.5,-2.7 1.5,-4.5 0,-1.8 0.7,-3.8 1.5,-4.5 0.8,-0.7 1.5,-2 1.5,-2.9 0,-1 0.7,-2.6 1.5,-3.7 0.8,-1 1.5,-3.1 1.5,-4.5 0,-1.5 0.6,-3.2 1.4,-3.8 0.8,-0.7 1.7,-3 2.1,-5.2 0.4,-2.1 1.1,-3.9 1.6,-3.9 0.5,0 0.9,-1.1 0.9,-2.4 0,-1.3 0.7,-2.9 1.5,-3.6 0.8,-0.7 1.5,-2.7 1.5,-4.5 0,-1.8 0.7,-3.8 1.5,-4.5 0.8,-0.7 1.5,-2 1.5,-2.9 0,-1 0.7,-2.6 1.5,-3.7 0.8,-1 1.5,-3.1 1.5,-4.5 0,-1.5 0.7,-3.2 1.5,-3.9 0.8,-0.7 1.5,-2 1.5,-2.9 0,-0.9 0.7,-2.9 1.5,-4.5 0.8,-1.5 1.5,-3.6 1.5,-4.6 0,-1 0.7,-2.3 1.5,-3 0.8,-0.7 1.5,-2.7 1.5,-4.5 0,-1.8 0.7,-3.8 1.5,-4.5 0.8,-0.7 1.5,-2 1.5,-2.9 0,-0.9 0.7,-2.9 1.5,-4.5 0.8,-1.5 1.5,-3.3 1.5,-4 0,-0.8 -5.3,-1 -18.6,-0.9 -10.3,0.1 -19.3,0.4 -20,0.7 -0.8,0.3 -1.4,1.3 -1.4,2.3 0,1 -0.7,3.1 -1.5,4.7 -0.8,1.5 -1.5,4.3 -1.5,6.1 0,1.8 -0.7,3.8 -1.5,4.5 -0.8,0.7 -1.5,2.7 -1.5,4.5 0,1.8 -0.7,3.8 -1.5,4.5 -0.8,0.7 -1.5,2.7 -1.5,4.5 0,1.8 -0.7,3.8 -1.5,4.5 -0.8,0.7 -1.5,2 -1.5,2.9 0,0.9 -0.7,2.9 -1.5,4.5 -0.8,1.5 -1.5,3.6 -1.5,4.5 0,0.9 -0.7,2.9 -1.5,4.5 -0.8,1.5 -1.5,3.6 -1.5,4.5 0,1 -0.7,2.6 -1.5,3.7 -0.8,1 -1.5,3.1 -1.5,4.5 0,1.4 -0.7,3.4 -1.5,4.5 -0.8,1 -1.5,3.1 -1.5,4.5 0,1.4 -0.7,3.4 -1.5,4.5 -0.8,1 -1.5,3.1 -1.5,4.5 0,1.4 -0.7,3.4 -1.5,4.5 -0.8,1 -1.5,3 -1.5,4.4 0,1.4 -0.7,3.4 -1.5,4.4 -0.8,1.1 -1.5,3.2 -1.5,4.7 0,1.4 -0.7,3.2 -1.5,3.9 -0.8,0.7 -1.5,2.7 -1.5,4.5 0,1.8 -0.7,3.8 -1.5,4.5 -0.9,0.7 -1.5,2.9 -1.5,5.2 0,2.6 -0.5,4.1 -1.6,4.5 -2.3,0.8 -6.3,-4.4 -6.4,-8.3 0,-1.7 -0.7,-3.7 -1.5,-4.4 -0.9,-0.7 -1.5,-2.9 -1.5,-5.1 0,-2.2 -0.4,-3.9 -0.9,-3.9 -0.5,0 -1.2,-1.8 -1.6,-3.9 -0.4,-2.2 -1.3,-4.5 -2.1,-5.2 -0.8,-0.6 -1.4,-2.6 -1.4,-4.4 0,-1.8 -0.7,-3.8 -1.5,-4.5 -0.8,-0.7 -1.5,-2.7 -1.5,-4.5 0,-1.8 -0.7,-3.8 -1.5,-4.5 -0.8,-0.7 -1.5,-2.7 -1.5,-4.5 0,-1.8 -0.7,-3.8 -1.5,-4.5 -0.8,-0.7 -1.5,-2.7 -1.5,-4.5 0,-1.8 -0.7,-3.8 -1.5,-4.5 -0.8,-0.7 -1.5,-2.7 -1.5,-4.5 0,-1.8 -0.7,-3.8 -1.5,-4.5 -0.8,-0.7 -1.5,-2.4 -1.5,-3.9 0,-1.4 -0.7,-3.5 -1.5,-4.5 -0.8,-1.1 -1.5,-3.1 -1.5,-4.5 0,-1.4 -0.7,-3.5 -1.5,-4.5 -0.8,-1.1 -1.5,-2.7 -1.5,-3.7 0,-0.9 -0.7,-3 -1.5,-4.5 -0.8,-1.6 -1.5,-3.6 -1.5,-4.5 0,-0.9 -0.7,-3 -1.5,-4.5 -0.8,-1.6 -1.5,-3.6 -1.5,-4.5 0,-0.9 -0.7,-2.2 -1.5,-2.9 -0.8,-0.7 -1.5,-2.3 -1.5,-3.6 0,-1.3 -0.6,-2.5 -1.2,-2.5 -2,-0.2 -21.7,0.3 -28,0.6 -3.7,0.2 -6.2,-0.1 -7.5,-1 -2.9,-2.3 -4.3,-1.8 -4.3,1.4 z"
     id="path19"
     style="fill:#084873;stroke:none;stroke-width:0.1;fill-opacity:1" />
  <path
     d="m 1828,2134.6 c 0,54.9 0.2,63.3 1.5,64.4 0.8,0.7 1.5,2.9 1.5,5 0,3.7 3.6,11.8 7,15.5 1,1.1 2.1,3 2.4,4.2 0.8,2.5 9.2,10.3 11.1,10.3 0.7,0 1.8,0.7 2.5,1.5 0.7,0.8 2,1.5 3,1.5 1,0 2.3,0.6 2.9,1.4 0.6,0.7 3.5,1.6 6.4,1.9 2.8,0.4 5.3,1.1 5.5,1.7 0.2,0.6 6.1,1 15.5,1 11.8,-0.1 15.6,-0.4 17.1,-1.5 1.1,-0.8 3.4,-1.5 5.2,-1.5 1.7,0 3.7,-0.7 4.4,-1.5 0.7,-0.8 2.1,-1.5 3.1,-1.5 1,0 2.1,-0.4 2.4,-1 0.3,-0.5 2.2,-1.7 4.1,-2.6 1.9,-0.9 6.3,-4.7 9.8,-8.5 7.8,-8.5 8.6,-8 8.6,4.9 v 9.3 l 17,-0.3 17,-0.3 v -83 -83 l -15.8,-0.1 c -8.6,0 -16.9,-0.4 -18.4,-0.8 l -2.8,-0.8 v 18.2 c 0,10.8 0.4,18.9 1.1,20.1 0.5,1.1 1.3,10.6 1.6,21.2 0.5,15.6 0.3,20.7 -1.1,27.1 -0.9,4.3 -1.6,11.1 -1.6,15.1 0,5.2 -0.4,7.6 -1.5,8.5 -0.8,0.7 -1.5,2.7 -1.5,4.5 0,1.9 -0.8,3.9 -2,5 -1.1,1 -2,2.4 -2,3.1 0,2 -10,12.4 -12,12.4 -1,0 -2.3,0.7 -3,1.5 -0.7,0.8 -2,1.5 -3,1.5 -1,0 -3.1,0.7 -4.6,1.5 -3.9,2 -17.3,2 -20,0 -1,-0.8 -3,-1.5 -4.4,-1.5 -4.7,0 -17,-14.6 -17,-20.1 0,-1 -0.6,-1.9 -1.2,-2.1 -1,-0.4 -1.4,-13 -1.6,-57.9 l -0.3,-57.4 h -18.4 -18.5 z"
     id="path20"
     style="fill:#084873;stroke:none;stroke-width:0.1;fill-opacity:1" />
  <path
     d="m 2227,2154.2 v 82.8 h 16.9 16.9 l 0.5,-64.3 c 0.2,-35.3 0.5,-72.2 0.6,-82.1 0.1,-9.8 0,-18.1 -0.3,-18.3 -0.2,-0.3 -8.1,-0.6 -17.5,-0.6 l -17.1,-0.2 z"
     id="path21"
     style="fill:#084873;stroke:none;stroke-width:0.1;fill-opacity:1" />
</svg>
